/* XPM */
static char *result[] = {
/* columns rows colors chars-per-pixel */
"64 64 234 2 ",
"   c #150027",
".  c #1A0627",
"X  c #25092B",
"o  c #2B0C2D",
"O  c #240828",
"+  c #320F29",
"@  c #2C142E",
"#  c #291729",
"$  c #36142B",
"%  c #2C0D31",
"&  c #341533",
"*  c #331C33",
"=  c #3C1738",
"-  c #2C1C32",
";  c #34242C",
":  c #392928",
">  c #3C382B",
",  c #332334",
"<  c #3E243A",
"1  c #3B2738",
"2  c #3E3733",
"3  c #2D2326",
"4  c #441B2B",
"5  c #4A1E2B",
"6  c #481C31",
"7  c #471C31",
"8  c #4C242C",
"9  c #5B292D",
"0  c #53242D",
"q  c #43382B",
"w  c #4A2C32",
"e  c #472836",
"r  c #5B2B34",
"t  c #552836",
"y  c #463638",
"u  c #5D3233",
"i  c #56333A",
"p  c #5A363A",
"a  c #58363B",
"s  c #53372B",
"d  c #622D2D",
"f  c #6A312F",
"g  c #642E34",
"h  c #6B3331",
"j  c #683338",
"k  c #723633",
"l  c #733833",
"z  c #7C3C3D",
"x  c #773A39",
"c  c #3F402C",
"v  c #5A7D1F",
"b  c #4A452F",
"n  c #46492C",
"m  c #4E5C2A",
"M  c #4B5827",
"N  c #54582B",
"B  c #484737",
"V  c #564839",
"C  c #555737",
"Z  c #53532F",
"A  c #7A423A",
"S  c #645B34",
"D  c #684734",
"F  c #526426",
"G  c #546B24",
"H  c #54642B",
"J  c #5B6D2E",
"K  c #586829",
"L  c #567223",
"P  c #597525",
"I  c #5B7E20",
"U  c #5C742D",
"Y  c #5E7B2B",
"T  c #577128",
"R  c #5D6C3A",
"E  c #5A6733",
"W  c #5C7233",
"Q  c #4F6127",
"!  c #627D2C",
"~  c #62772C",
"^  c #636935",
"/  c #637C32",
"(  c #68783A",
")  c #71723E",
"_  c #461C42",
"`  c #4C2945",
"'  c #522645",
"]  c #552B43",
"[  c #453341",
"{  c #4C3B45",
"}  c #493442",
"|  c #533D43",
" . c #593F42",
".. c #5F3253",
"X. c #6A3945",
"o. c #773A49",
"O. c #6D365A",
"+. c #753C59",
"@. c #612D4C",
"#. c #733760",
"$. c #544549",
"%. c #594A4B",
"&. c #584547",
"*. c #5D534C",
"=. c #5B5849",
"-. c #544D51",
";. c #594F51",
":. c #5C5453",
">. c #5F5956",
",. c #5E5F5A",
"<. c #4D4644",
"1. c #654847",
"2. c #794947",
"3. c #665346",
"4. c #77574B",
"5. c #79415C",
"6. c #6B5C53",
"7. c #615E59",
"8. c #605A51",
"9. c #765A52",
"0. c #6A4757",
"q. c #5E6545",
"w. c #686946",
"e. c #756842",
"r. c #6A7746",
"t. c #64655E",
"y. c #696754",
"u. c #796656",
"i. c #767C55",
"p. c #717F4A",
"a. c #7E4565",
"s. c #6C6D64",
"d. c #676861",
"f. c #726D61",
"g. c #6D7266",
"h. c #86433B",
"j. c #8A453B",
"k. c #834538",
"l. c #974C3C",
"z. c #A1533F",
"x. c #8D4941",
"c. c #854843",
"v. c #934C44",
"b. c #9A4F44",
"n. c #875349",
"m. c #965448",
"M. c #884757",
"N. c #845657",
"B. c #94535D",
"V. c #AC5A44",
"C. c #AB5D4A",
"Z. c #A35644",
"A. c #B15E50",
"S. c #8F644D",
"D. c #90634D",
"F. c #956750",
"G. c #BA634B",
"H. c #BE674B",
"J. c #BA6E57",
"K. c #BF7051",
"L. c #A46956",
"P. c #894966",
"I. c #954E6A",
"U. c #9B5468",
"Y. c #9C5377",
"T. c #90536B",
"R. c #A7596B",
"E. c #A65A79",
"W. c #B2666E",
"Q. c #B76A78",
"!. c #AF6871",
"~. c #98616D",
"^. c #C2674A",
"/. c #C46A4C",
"(. c #CA6C4E",
"). c #D3724F",
"_. c #C87854",
"`. c #D47453",
"'. c #DA7651",
"]. c #D97955",
"[. c #CA6D51",
"{. c #E37C54",
"}. c #EA7F55",
"|. c #E17B5F",
" X c #D7756B",
".X c #C66B7A",
"XX c #CC727E",
"oX c #CE7E7E",
"OX c #C76D64",
"+X c #E37B60",
"@X c #5C811F",
"#X c #5E8121",
"$X c #628523",
"%X c #668924",
"&X c #698B25",
"*X c #63812B",
"=X c #69872B",
"-X c #688336",
";X c #6D8344",
":X c #718546",
">X c #C7875C",
",X c #DA875B",
"<X c #C6925F",
"1X c #E38056",
"2X c #EB8156",
"3X c #EA8458",
"4X c #EB8C5B",
"5X c #E2885A",
"6X c #F28457",
"7X c #F18458",
"8X c #EA925D",
"9X c #ED985F",
"0X c #F2945F",
"qX c #C69260",
"wX c #CD8C60",
"eX c #EB9D62",
"rX c #E69962",
"tX c #F19D62",
"yX c #EBA466",
"uX c #EAA967",
"iX c #EAA768",
"pX c #E7AD6A",
"aX c #EAAF6B",
"sX c #E7A366",
"dX c #F1A264",
"fX c #F2AC68",
"gX c #EAB16B",
"hX c #E7B06B",
"jX c #F0B56D",
"kX c #F2B86E",
"lX c #AE5E84",
"zX c #BC6684",
"xX c #AF6084",
"cX c #C97881",
/* pixels */
"I v I I v I I I v I I I I I I I v v *X=., .                                         . , ,.;XI I v I I I I I I I I I I I v v #X@X",
"#X#X#XI I I I I I I v I I v I I v @X;Xy.1 X X X X X X X X O X X O X X X X X X X X X X e y.;XI @XI I I v I I I I #X#Xv #XI #X#X$X",
"%X%X#Xv I I #X#X#X@XI I I I v I ! -X:X9.| 7 7 6 6 6 6 6 7 7 7 7 6 6 6 6 7 7 7 7 6 6 6 i 6.;X*XI v v I I I I I I $X%X$X$XI I #X&X",
"%X$X#XI I #X%X&X%XI I I I I I #X:Xi.f.9.c.z z z z z z z z z z o.z z z z z z z z z z z 2.9.u.r.-X#X$X#X#X#XI I I #X&X%X#XI I #X$X",
"#X#XI I v I #X$X#XI I v I I $X( y.3.4.n.A.G.G.G.G.G.G.G.G.A.G.G.G.G.G.G.G.G.G.G.G.H.G.C.n.2.*.y.;X=X&X$X#XI I I #X#X#XI I I I I ",
"I I I I I I I I I I I I I @X=Xy.&.i x C.`.1X2X2X].{.1X{.1X1X1X{.{.{.,X{.{.{.,X{.1X3X1X).C.z i $.f.:X&X@XI I I I #XI #XI I I I I ",
"I I I I I #Xv I #Xv I I @X*Xi.6.X.X.m.K.5X0X0X0X0X0X0X0X0X0X0X0X0XrX0X0X0X0X0X0X0X0X0X,XJ.m.o.j 6.i.-X! I I I I I I I v I I I I ",
"v I I v I v I I I I v @XY y.9.2.x.Z.K.,XrXdXdXdXdXdXtXyXdXyXtXdXtXtXdXtXyXtXdXtXdXdXdXrX,XK.Z.v.2.u.y.p.#XI I I I I v I I I I I ",
"I I I I I I I I I I v Y =. .X.m.J.`.,XrXiXiXaXaXaXaXaXhXpXaXaXaXaXaXuXaXaXaXaXaXiXaXaXyXrX5X].J.v.X.| 8.r.#XI I I I I I I I I I ",
"I I v I I I I I v v ! r.&.r A C.`.8XtXiXaXhXgXgXaXaXaXaXaXaXaXaXaXaXaXaXaXgXaXaXaXgXaXaXiXtX8X`.C.c.r &.r./ #X#X#XI I I I I I I ",
"I I I I I #X#X#X#XI ( 9.2.c.C._.5XdXfXfXaXgXgXgXaXgXgXgXaXaXgXjXgXgXgXgXgXgXgXgXgXgXaXaXfXdXtX5X_.Z.h.2.9.r.$X%X%X#XI I I I I I ",
"I I I I $X%X%X$X@XU 3.2.m.G._.,XrXiXfXaXaXgXgXgXgXaXgXgXgXaXgXaXgXgXgXaXgXgXgXgXgXgXgXaXaXaXaXrX,X_.G.m.n.3.U #X#X#XI I I v I I ",
"v I I I #X$X#X#XI n i c.^.,X4XeXpXaXaXaXaXaXaXaXaXaXaXaXaXaXaXaXaXaXgXaXaXaXaXaXaXaXaXgXaXhXaXiXsX8X1XH.x.p N P #XI I I I @X#Xv ",
"I I I v I I I #XG w r m._.9XdXfXgXaXaXgXaXaXaXaXaXaXgXaXaXaXaXaXaXgXaXaXaXaXgXaXgXaXaXaXgXgXgXaXfXdX9X_.v.i b L @XI I #X#X%X%X#X",
"I I I I #XI #X#Xm e r m.>XeXfXfXgXgXgXgXaXaXaXaXaXgXaXaXaXaXaXaXaXaXgXaXgXaXaXaXaXaXaXaXgXgXgXgXfXfXeX>Xm.i y T I v I I %X&X%X#X",
"I I v I I I I #Xm 1 i D.>XyXjXjXgXaXaXaXaXaXgXaXgXaXgXaXaXaXgXaXaXaXaXaXhXaXaXaXaXaXgXaXaXaXaXgXgXfXpX>Xn.i y H I I I I #X$X#X#X",
"$XI #X#XI I I #XZ 1 i S.qXpXkXgXgXaXaXaXaXgXaXaXaXaXaXaXaXaXaXaXaXaXhXhXaXgXgXaXaXgXaXaXaXaXaXaXkXgXaXqXS.i 1 C #X#X#XI I I I I ",
"&X$X$X$X#XI I I n & i S.qXpXkXkXgXgXgXaXaXaXaXaXaXaXgXaXgXaXgXaXaXaXaXhXaXaXpXaXaXaXaXaXaXaXgXgXkXkXhXqXS.i * q W Y #X#XI I I I ",
"%X#X$X#XI #XP m ; @ p D.qXpXkXkXaXaXaXaXaXaXaXgXaXgXaXgXhXgXaXgXaXaXaXaXaXaXaXaXaXaXaXgXaXgXaXaXgXkXhX<XF.i % * c E U W T W W W ",
"F F G L L T Q > - $ p F.qXpXgXgXgXaXaXaXgXaXaXaXaXaXaXaXaXaXgXaXaXgXaXaXgXaXaXgXgXaXaXaXaXaXaXgXjXjXpX<XF.p = % - 2 n n n n c > ",
"n M Q F F H Z e _ ' 2.L.wXyXfXfXaXaXaXaXaXaXaXgXaXaXhXaXaXaXaXaXaXaXgXaXgXaXaXaXaXaXaXgXgXaXaXaXaXfXsXwXL.2.] _ _ y y b c > : 3 ",
"n M Q N K E 3.a.#.+.B.W.,XrXyXyXaXgXgXaXaXaXaXaXaXgXaXaXhXgXaXaXaXaXaXaXaXaXaXaXaXaXaXaXpXgXaXaXdXyXrX,XJ.I.+.O.#.5.3.C B c 3 # ",
"M M F K J r.T.Y.Y.Y.W.OX X8X9XyXiXgXgXgXaXaXaXaXaXaXaXaXhXhXgXaXaXaXaXaXaXaXaXhXaXaXaXaXgXgXaXuXyX9X4X].OXW.E.Y.Y.Y.N.3.C n > 3 ",
"G L T ~ ^ e.~.xXlXQ..X X|.3X8XeXiXaXgXgXgXaXgXaXaXaXaXaXaXaXaXaXaXaXhXgXaXgXaXaXaXaXgXaXgXgXgXaXyX8X3X|. XQ.xXlXlXE.T.e.J T Q m ",
"v v v v ~ ^ N.Y.lXzXcX X+X3X8XsXaXgXgXgXgXaXaXaXgXaXaXaXaXaXgXaXaXaXgXaXgXgXaXaXgXaXaXaXgXgXgXiXeX4X3X+X X.XzXlXY.P.9.^ Y I I I ",
"v v v v ! ~ 3.P.E.zXcX X+X3X8XeXuXgXgXgXaXaXaXaXaXaXaXgXgXpXaXaXgXaXaXaXhXaXaXgXaXaXaXaXgXgXgXiXsX8X3X+X XcXzXE.a.O.&.U v v I I ",
"@X@X@X@X%X! C 0.Y.E..X X+X3XrXtXuXaXgXhXaXaXaXgXaXaXaXaXaXaXaXaXaXaXaXaXaXgXaXaXaXaXaXaXgXgXaXiXeX8X}.+X X.XE.Y.#.` B U v I I I ",
"v @X%X@X$X! J 3.a.I.R.OX].3X7XtXsXyXaXaXaXgXgXgXgXgXaXaXaXgXaXaXaXaXgXaXaXaXgXaXgXgXaXaXaXaXyXsX9X0X}.+XOXR.T.P.O.=.Y #XI I I I ",
"v v I I I #XY w.+.+.M.A.`.+X7X0X8XrXyXyXaXgXgXgXgXgXgXaXaXaXgXaXaXhXaXaXgXhXaXgXgXgXgXaXuXeXeXrX4X4X2X`.A.P.+.0.y.! I I I I I v ",
"v v v I v I I / *.' X.m.[.}.6X6X4X8XeXyXaXgXgXgXgXgXaXgXaXaXaXaXgXgXaXaXaXaXgXgXhXhXgXaXyXeX4X4X6X6X}.[.b.X.' *./ #X#Xv I I I I ",
"@Xv v I I I v Y C e t v.[.}.}.6X2X3X8XeXyXuXaXuXuXaXiXaXaXgXaXaXaXgXaXaXaXaXaXiXaXaXuXyXeXrX3X3X2X6X{.[.v.t e C ! $X$Xv I I I I ",
"v v I I I I v $XZ , 0 x.[.}.}.}.}.2X4XrXeXsXeXsXsXyXiXgXgXgXgXgXgXgXgXaXaXiXiXeXeXsXtXeX8X4X2X}.6X6X}.[.x.0 1 N %X$X$XI I I v I ",
"#X@X#XI I I I #XG q t x.[.}.6X}.2X2X3X4X8X8X8X8X8XrXsXpXhXgXgXgXgXgXgXaXaXyXeX8X8X8X8X8X4X3X2X}.7X7X2X[.v.0 w G #X#X#X@XI I #X$X",
"$X%X#XI I v #X#XI Z 9 x.^.}.}.}.2X2X2X2X3X3X2X2X4X8XeXsXgXgXgXhXgXgXaXiXiXeX8X3X6X7X}.3X3X}.}.}.2X6X{./.j.u b T %X$X$X$XI I $X&X",
"%X$X#Xv v #X%X&X$XJ 3.n.C.[.).{.{.2X2X2X}.}.}.}.2X4X8XsXyXuXuXuXiXiXiXiXtXrX4X}.}.}.}.}.}.}.}.}.].`./.C.n.3.J Y #X%X%X#XI I I $X",
"#X#XI I I I #X#X$XI r.9.n.v.C.[.{.2X6X2X}.}.}.}.2X3X8X8X9X9X9X9XeXeXrXrX8X4X4X}.}.}.}.}.6X7X2X{.[.A.v.n.9.r.I I #X%X$XI I I v I ",
"#XI I I I v I #XI v / u.1.j c.A.`.2X6X6X}.}.}.}.}.2X3X4X4X4X4X4X4X4X4X4X3X3X3X}.}.}.}.6X}.}.}.'.C.c.j 1.y.-Xv I v I I I I I I I ",
"I I I I I I I I I I #Xq.| 6 j b./.].}.}.2X2X2X}.2X}.2X2X2X2X2X2X}.3X3X}.3X}.}.}.}.}.}.}.}.}.{.^.b.j 6 { r.! I I I I I v v I v I ",
"I I I I v I I I I v #Xq.y 4 g h.V./.).{.2X2X6X6X2X2X2X}.}.}.}.}.}.}.}.}.}.}.3X}.}.6X}.}.}.'.^.V.h.g 4 y q.Y v I I I v #XI I I I ",
"I I I I I I I I I I U C e 5 0 k j.z.H.).}.7X7X7X2X2X2X2X}.}.}.}.}.}.}.}.3X}.7X7X6X6X}.}.).^.z.j.k 9 5 e V E I I I I I I I v I I ",
"I I I I I v I I I I m w 0 9 d f h k.z.^.'.}.2X}.}.}.}.}.}.}.}.2X}.}.}.7X}.}.}.}.}.}.}.'.^.z.h.f d g r 0 w q G ! #X#Xv I I I I I ",
"I v v I #X#XI #XI I N w r h j g d f j.z.H.(.(.).).'.{.{.}.6X2X}.3X}.}.}.{.{.'.).).(.(.^.Z.h.f d g g j r w q M ! &X$X#XI I v I v ",
"I I v #X#X%X#X$X$Xv N p +.o.o.j d 9 f z j.v.b.z.z.^.).}.6X6X6X2X3X7X7X7X{.).^.z.Z.b.l.h.z f 9 9 j o.c.o.p s n P %XI I I I I v I ",
"I I #Xv #X$X%X#X@XL Z O.P.I.M.z g 9 0 0 t r j l k.z.^.'.}.6X6X2X}.7X7X}.'.^.z.k.x g r 0 0 0 9 g o.M.I.P.O.y m P @Xv I v I I I I ",
"v #Xv I #X#X#XI I L V +.I.E.U.M.j r 6 $ + + 4 0 f k.z.).'.{.{.{.{.{.{.'.(.z.j.f 0 4 + + 4 6 r x M.U.E.U.+.V m P v I I #X#X#X%XI ",
"I I I I #XI I I v G V +.E..XQ.U.M.o.t % O X + 5 d l l.z.H.^.^.^.^./.^.^.V.l.l 9 4 + O O % t X.M.R.W..XE.5.V m L #XI v #X$X&X=X#X",
"#Xv I I v I v I I G V M.Q.cXcXQ.R.M.@.7 O O + 4 9 f k.j.l.l.l.l.l.l.l.l.l.l k 9 4 + O O 7 @.a.R.Q.cXcXQ.M.V m L v I I I #X$X#X#X",
"$X#Xv #XI I I I I K V N.W.cXcXcXE.I.O._ + + $ 5 9 d f l l l l l k k x l k f f 9 5 + + + _ #.I.E.cXcXoX!.N.Z F I #XI I v #X#X#X#X",
"&X%X#X$X#Xv I I v L E 4.W.Q.Q.Q.E.P.#.` & % $ 0 u u d u g r g u u d u g u d g r 0 * % = ` O.P.E.Q.Q.Q.!.4.^ P @Xv I I I v I I I ",
"&X#X$X#XI I I v #X#X=Xr.n.N.T.N.a.#...` < < e i p p p p i i p p p p i i p p p a p e < < ` ..#.a.P.M.N.S.w.~ v v v I I v I I I v ",
"#X#X#X@Xv I I I #X&X&X-X^ p ] ' ` ` ` } } } | |  . .V  .|  .| | &.a  .| V  . . .&.y { } ` ` ` ` ' ] a C ~ I v I I I v #Xv #XI I ",
"I I v v I I I v #X#X#X#XE n ; o % & < } | -.$.%.%.%.%.%.%.%.%.$.$.&.&.%.%.%.%.%.%.%.$.{ [ < & @ % ; n W Y I I I I I I I I v I I ",
"I I I v I I I I I I I I Y J m > @ @ - [ $.;.:.:.8.8.7.8.;.;.$.{ <.$.-.;.8.7.:.:.:.:.%.$.} , % % , B E I I I I I v I I v I #X#X#X",
"#Xv I I I I I I I I I I v I Y H c # * [ $.;.8.7.7.t.d.d.7.-.[ [ e { -.,.d.d.d.7.7.7.:.$.} * X - B W I v I I I I I I I I #X$X%X$X",
"v I I I I I L I v I I I I I I P Q > 1 } $.:.7.t.s.s.s.s.t.-.[ , * [ -.d.s.g.f.s.d.7.:.$.[ * @ y R Y #X#X#X$XI I #Xv I I I #X$X#X",
"I I I v I v I I v v I I I I I I G M b y  .;.7.u.f.f.s.d.7.;.<.B { <.-.,.d.s.f.f.t.6.%.$.y * - B / I I %X%X%X$XI v I I I I I #XI ",
"I v I #X%X$X#X#XI I I I I I I I P F F N V 1.e.u.u.9.6.=.q.R U W W q.-.-.-.6.u.u.u.4.1.a e * , n W I v #X#X$XI I I I I v I v I I ",
"I #X$X$X%X&X$XI I I I I v I v I v G G G D D A l.n.4.S N Q U Y #X#XY R <.[ &.2.n.n.A x i 8 * ; n Y I v I I I v I I I I I I #Xv I ",
"I #X$X#X$X$X#XI I I I v v I I I I v G G G D k.j.j.S N m H Y I I #X#XW C e t o.j.x.z h 9 8 : > C I I v I I I I I v I I I I v I I ",
"v I @X#X#Xv v I I v I I #XI #X#XI I P L F N f D A S E E U Y I I Y #X-XR =.D x z k g 9 8 w V E ~ I L I I I v v I I I I v I I I I ",
"I I v I I v I I I I I #X$X$X$X#Xv I I P F n s s N S ~ ! #XI I I I I I *X( y.1.r 0 5 4 e V r.-X$XI I I I v I I I I #X#XI I v #Xv ",
"I I #XI I I I I I I I #X%X$X#XI #Xv v U M q : q b ( ! ! I I I I I I I I -Xp.*.7 + @ + e 8.-X#X#XI I I I I I I #X$X#X$XI I I I I ",
"I I v I I I I v I v v I I I I I v v @XU n : # # 2 R *Xv I I I I I I I I -X;X*.* X X X 1 q.-XI I I I I I I I I #X$X$X#X#XI I I I ",
"I v I I v I I #XI I I I I I I I v v v Y q O O O , E $Xv I I I I I I I I #X( q., . . # 2 w.*XI v I I I I v I I I #X#X#Xv I I v I "
};
