/* XPM */
static char *result[] = {
/* columns rows colors chars-per-pixel */
"64 64 181 2 ",
"   c #5A7D1F",
".  c #4D5B2D",
"X  c #515F2D",
"o  c #54642E",
"O  c #55682B",
"+  c #5B6D2C",
"@  c #5B7E20",
"#  c #5C7C2C",
"$  c #4B6230",
"%  c #5F6630",
"&  c #536B32",
"*  c #596A34",
"=  c #5B6B3B",
"-  c #567135",
";  c #5A7334",
":  c #5E7836",
">  c #577538",
",  c #5E7239",
"<  c #5C793B",
"1  c #607A2B",
"2  c #656D32",
"3  c #6C6F35",
"4  c #6A6F38",
"5  c #647232",
"6  c #6A7334",
"7  c #657935",
"8  c #687A36",
"9  c #677739",
"0  c #6D723A",
"q  c #637C3A",
"w  c #6C7B3A",
"e  c #737536",
"r  c #72743A",
"t  c #767B3B",
"y  c #7D7D3C",
"u  c #637644",
"i  c #657D45",
"p  c #737E45",
"a  c #747F4A",
"s  c #5D801F",
"d  c #5E8121",
"f  c #628523",
"g  c #668924",
"h  c #698A25",
"j  c #63842C",
"k  c #6C832D",
"l  c #67882C",
"z  c #6A8B2C",
"x  c #71812F",
"c  c #688734",
"v  c #6A8933",
"b  c #65833D",
"n  c #6D833C",
"m  c #6E8B3A",
"M  c #708A30",
"N  c #73833D",
"B  c #7B843B",
"V  c #728D3D",
"C  c #7C883E",
"Z  c #6D923C",
"A  c #749335",
"S  c #74913E",
"D  c #658444",
"F  c #6D8443",
"G  c #6A8B44",
"H  c #6F834A",
"J  c #6B8B4C",
"K  c #728746",
"L  c #7C8544",
"P  c #738C43",
"I  c #7D8B43",
"U  c #74844A",
"Y  c #7D8549",
"T  c #748B4B",
"R  c #7D8B4A",
"E  c #6F9347",
"W  c #759345",
"Q  c #7A9544",
"!  c #7F9847",
"~  c #73924C",
"^  c #7A934B",
"/  c #749A4B",
"(  c #7C9C4A",
")  c #738750",
"_  c #7B8E52",
"`  c #7B9251",
"'  c #7F9D50",
"]  c #7D9C5A",
"[  c #7AA04D",
"{  c #7CA251",
"}  c #84813E",
"|  c #848444",
" . c #898442",
".. c #828C44",
"X. c #86864A",
"o. c #88874A",
"O. c #848D4A",
"+. c #898C4D",
"@. c #938A47",
"#. c #918D4A",
"$. c #9B8F4A",
"%. c #879346",
"&. c #899147",
"*. c #839A42",
"=. c #889C46",
"-. c #84944C",
";. c #8C954C",
":. c #8D9C4C",
">. c #96944C",
",. c #9B934B",
"<. c #949B4C",
"1. c #9B9C4D",
"2. c #858E50",
"3. c #8B8D52",
"4. c #849453",
"5. c #8B9553",
"6. c #829A55",
"7. c #8F9A56",
"8. c #899458",
"9. c #819B5A",
"0. c #8C9C5B",
"q. c #929557",
"w. c #9A9454",
"e. c #909955",
"r. c #9D9E50",
"t. c #999759",
"y. c #939A5A",
"u. c #9A9C5D",
"i. c #A4944E",
"p. c #A1994F",
"a. c #A39755",
"s. c #A49D51",
"d. c #AA9D50",
"f. c #84A34D",
"g. c #89A24B",
"h. c #95A14F",
"j. c #9CA14E",
"k. c #80A650",
"l. c #85AC56",
"z. c #88AC53",
"x. c #83A15E",
"c. c #89A25F",
"v. c #85A85F",
"b. c #8CA85A",
"n. c #97A753",
"m. c #9DA552",
"M. c #9CAB55",
"N. c #94A15D",
"B. c #9EA45B",
"V. c #91AD5D",
"C. c #9EAF58",
"Z. c #8AB25B",
"A. c #ADA756",
"S. c #ADA857",
"D. c #ACA25F",
"F. c #85A561",
"G. c #8BA563",
"H. c #8DAB66",
"J. c #8CAC68",
"K. c #97A763",
"L. c #9CA562",
"P. c #92AD64",
"I. c #9DAB64",
"U. c #91AF6C",
"Y. c #9FAF68",
"T. c #91B26C",
"R. c #96B570",
"E. c #97B872",
"W. c #99B972",
"Q. c #A4A363",
"!. c #AAA664",
"~. c #A4AE67",
"^. c #ADAA66",
"/. c #A1AF69",
"(. c #B4AF6B",
"). c #A5B26C",
"_. c #A8B26A",
"`. c #AAB771",
"'. c #AAB872",
"]. c #B7B371",
"[. c #B8B471",
/* pixels */
"@   @ @   @ @ @ @ @ @ @ @ @ @ @ @ @ @ @ @ @ @ @ @     @ @ @ @ @ @ @ @ @ @ @ @ @ @ @ @ @ @ @ @ @ @ @ @ @ @ @ @     @ @ @ @ d   @ ",
"@ f d f d @ @ @ @ @ @ @ @ @   @ @ @ @ @ @   @ @ d d s d @ @ f f d @ @ @ @ @ @ @ @ @ @ @ @ @ @ @ @ @ @ @ @ @ d d   d @ @ d g d d ",
"d h g g   @   d d f s @ @ @ @ @ d   @ d @ @ @   f f f d @ @ g g d @ @ @ @ @ d f d @ @ @ @ @ @ @ @   @   @ @ d g f f d @ d h g @ ",
"@ f g d d   d d g h d @ @ @ @ @ d d d d @ @ @ d f g f @ @ @ d d @ @ @ @ @ @ f h f d @ @ @ @ @ d f d d @   d d g h f   @ @ f d @ ",
"@ d d @ @ @ @ @ f f @ @ @ @ @ d d g g g @ @ @ @ d f @ @ @ @ @ @ @   @ @ @ @ @ f d d @ @ @ d d d g g d   @ @ s d f d @ @ @ @ @ @ ",
"@ @ @ @ @ @ @ @ @ @ @ @ @ @ @ f f f g d @ @ @ @ @ d @ @ @ @ d d d f @ @ @ @ @ @ @ @ @ @ @ d g d g g d @ @ @ @ @ @ @ @ @ @ @ @ @ ",
"@ @ @ @ @ @ @ @ @ @ @ @ @ @ @ d d d d d @ @ @ @ @ @ @ @ @ @ @ f g g # @ @ @ @ @ @ @ @ @ @ @ d d d d @   @ @ @ @ @ @ @ @ @ @ @ @ ",
"@ @ @ @ @ @ @ @ @   @ @ @ @ @   @ @ @   @ @ @ @ @ @ @ @ @ @ @ @ f f @ @ @ @ @ @ @ @ @ @ @ @ @ @ @ @ @ @ @ @ @   @ @ @ @ @ @ @ @ ",
"@ @ @ @ @ @ @ @ @ @ @ @ @ @   @ @   d @ @ @ @ @     @ @ @   @ @ d @ @ @ @     @ @ @ @   @ @ @ @ @ @ @ @ @ @ @ @ @ @ @ @ @ @ @ @ ",
"@ @ @ @   @ @   @ @ @ @ @ @ @ @ @ @   @ @ @ @ f d f @ @ @ @ @ @ @ @ @ @   d @ @ @ @ @ @   @ @ @ @ @ @ @ @ d d d @ @ @ @ @ @   @ ",
"@ @ @ @ @ @   f @ f @ @ @ @ @ @ @ @ @ @ @ @ d g h d @ @ @ @ @ @ @ @ @ @ s d d d d @ @ @ @ @ @ @ @ @ @ @ @ f h f @ @ @ @ @ @ @ @ ",
"@ @ @ @ @ @ g f f f @ @ @ @ @ @ @ @ @ @ @ @ @ f f   @ @ @ @ @ @ @   @ @ d g f g d @ @ @ @ @ @ @ @ @ @ @ @ d f d @ @ @ @ @ @ @ @ ",
"@ @ @ @   @ f f f d @ @ @ @ @ @   @ @ @ @ @ @ @     @ @ @ d d @ @ @   @ d f d d d @ @ @ @ @ @ @ @ @ @ @ @ @ @ @   d s s @ @ @ @ ",
"@ @ @ @ @ @ @ @   @   @ @ @ @   @ @ @ @ @ @ @ @   @ @ d f f f @ d @ @ @   d @ @ @ @ @ @ @ @ @ @ @ @ @ @ @   @ @ @   f f f d d @ ",
"@ @ @ @ @ @ @ @ @ @ @ @ @ @ @ @ @ @ @ @ @ @ @ @ @ @   @ h h f f d @ @ @ @ @ @ @ @   @ @ @ @   @ @   d @ @ @ @ @ @ @ f h g d f d ",
"@ @ @ @ @ @ @ @ @ @ @ @ @ @ @ @   d f d f @ @ @ @     @ f f d f d s @ @ @ @ @ @   @ @ @ @ @ @ @ f d f d @ @ @ @ @ @ d f f f d   ",
"@ @ f 1 s s s   @ @ @   @ @ @ @ @ d d f d @ @ @ @ @ @ @ @ @   d d g @ d d @ @ @ @ @ @   @ @ @ @ f f f @   @ @ @ @ @ @ @ @ @ @ @ ",
"1 h h f f f s   @   d d d d @   @ @ d d d d @ @ @ @ @ @ @ @ d S A z f f     @ @ @ @ d d f @ @ @   @ @ @ @ @ @ @ @ @ @   @ @ @ @ ",
"s g g f f d     @ d f g f f s @ @ @ @ @ @ @ @ @ @ @ @ @   @ c V *.Q f f f @ @ @ @ g g g d @ @ @ @ @ @ @ @ @ @ @ @ @ @ @   @ @ @ ",
"        @     s s d f f f d d s @ @ @ @ @ @ @ @ @ @   @ d d ~ V P ~ 1 f ^ V @   f f g f @ @ @ @ @ @ @ @ @ @ @ @ @ @   @ @ @ @ @ ",
"@ @   @ @ @ @ @ @ @ d d @ @ @ @ @ @ @ @ @ @ @ @ @   d k ` J D f./ i J _ 3.o.V @ @ d d d @ @ @ @ @ @ @ @ @ @ @ @ @ @ @ @ @ @ @ @ ",
"@ @ @     @ @ @ @ @ @ @ @ @ @ @ @ @ @   @ @ @ @   @ U :.7.* D Z.l.- o t s.+.V j V m l @ @ @ @ @ @ @ @ @ @ @ @ @ @ @ @ @ d d d @ ",
"@ @   d @ @ @ @ @ @ @ @ @ @ @ @ @ @   d d d @ @ @ ; O %.C.I P l.l.b 4 ,.A.e u ` 4.6.c @ @ @ @ @ @ @ @ @ @ @ @ @ @ @ @ f h f f   ",
"@ @ @ @ @ @ @ @ @ @ @ @ @ @ @ @ @ @ s f d d d d B 2 5 ..m.=.P g.g.F | d.p.5 - E W ] m @ @ @ @ @ d d f f f @ @ @ @ @ @ @ f d @ @ ",
"@ @ @ @ @ d d s   @ @ @ @ @ @ @   @ @ d g g f h A.,.e 6 1.B.T P.P.T w.i. .w { l.G T j @ @ @ @ @ @ d f g g s @ @ @ @ @ @ @ @ @ @ ",
"@ @ @ s d f f f @ @   @ @ @ @ @ d   d d f s   6 p.d.@.0 5.'.0.T.T.O.(.Q.L ! l./ $ u c @ @ @ @ @ @ d d d d d @ @ @ @ @ @ @ @ @ @ ",
"@ @ @ d f f h g @   @ @ @ @ @ d @ @ @ @   1 1 5 y $.D.w.R ).K.H.H.u.[.q.c.V.Q < O X T W l @ @ @ @ @ @ @ @ @ @ @ @ @ @ @ @ @ @ @ ",
"@ @ @ s f d f d @ @ @ @ @ @ @ d   @ @ @   M n.:.| L Q.[.q.N.).c.0.^.!.0.E.] ; 7 N N L 4.P d @ @ @ @ @ @ @ @ @ @ @ @ @ @ @ @ @ @ ",
"@ @ @ @ @ @ @ @ @ @ @   @ @ d d @ @ @ @ @ # :.M.j.N.5.u.!.7.I.4.5.^.y.H.] H R <.M.M.I 4.W d s d @ @ @ @     s @ @ @ @ @ @ @ @ @ ",
"@ @ @ @ @ @ @ @ @ @ @ @ @ d g f d @ @ @   O 7 L :.~.`.K.y.5.&.B } #.4.9.0./.~.<.:.N * ` z f g s @ @ @ @ s   d   @ @ @ @ @ @ @ @ ",
"@ @   @ @ @ @ @ @ @ @ @ @ d j d @ @ @ @ # ; : ; 5 U 0.).I.&.t |  .e -.I.).I.e...t e 6 U Q v V d   @ @ @   s f f f @ @ @ @ @ @ @ ",
"@ @ @ @ @ @   @ @ @ @ @ @ d @ @ @ @ @ @ Z ( ( k.F.] ] 9.4.C L a Y L ..7.u.u.Q.!.a.i.p.,.>.+.4.v @ @         1 f f @ @ @ @ @ @ @ ",
"s f d d d @ @ @ @ @ @ @ @ @ @ @ @ @ @ @ ( l.f.b.T.J.G.9.-.B R p p L B 5.u.Q.!.!.a.i.p.1.>.X.4.c d d   @   @ d d   d   @ d f d d ",
"d g f g s @ @ d d d @ @ @ @ @ @ @ @ @ @ < < 7 n T 4.K.Y.I.O.t L K N ;.I.L.5.p 0 e t e U R v P d     @ @ @ @ d g f f d @ f h g s ",
"d f g f @ @ @ d g h d @ @ @ @ @ @ @ f f H * w ;.r.).).K.y.;.&.y n G ^ 0.Y.'.L.O.t * $ ) d d @ d d @ @   @ @ d g h f   @ @ f d   ",
"@ d d d @ @   @ f f @ @ @ @ @ @ f f h Q ` I M.M.<.4.R q.!.y.K.4.' F.] H.' c.D.p.n.I * T d d d d f d @ @ @ @ d d f   @ @ @ @ @ @ ",
"@ @ @ @ @ @ @ @ @ d @   @   @ f f f z *.O.I -.P w 3 t.[.y.I.I.N.x.T.] F.E.] K &.n.n.-.4.m d f d h z d @ @ @ @ @ d   @ @ @ @ @ @ ",
"@ @ @ @ @ @ @ @ @ @ @ @ @ @ @ @ d d d l ^ U o 2 e @.^.a.0.'.0.K.G.J.J.J F.V.Q q 9 9 R 4.W d d @ d d @ @ @ @ @ @ @ @ @ @ @ @ @ @ ",
"@ @   @ @ @ @ @ @ @ @ @ @ @ @ @ @ @ @ @ d F = % >.d.$.X.I.).4.).K.] W.J < ( z./ & = P W d @ @ @ d @ @ @ @ @ @ @ @ @ @ @ @ @   @ ",
"@ @ @ @ @ @ @   @ @ @ @ @ @ @ @ @ @ @ @ @ @ _  .S.s.y O.A.5.R ).K.~ V.' - b { l.G ` d @ @ @ @ @ @ @ @ @ @ @ @ @ @ @ @ @ @ @ @ @ ",
"@ @ @ @ @ @ @ @   @ @ @ @ @ @ @ @ @ @ @ @ m 8.,.>.0 8 <.m.L I m.1.K f.f.D ; ; W / 9.m s @ @ @ @ @ @ @ @ @ d f d d   @ @ @ @ @ @ ",
"@ @ @ @ @ @ d d d d @ @ @ @ @ @ @ @ @ @ @ V 3.q.4.= w C.:.5 C M.m.P W l.G o = ` 6.6.m d @ @ @ @ @ @ @ @ @ f g f d @ @   @   @ @ ",
"@ @ @     s f g f f @ @ @ @ @ @ @ @ @ @ @ j P W k P R =.8 O t C.S.F > [ W J m z W Z c s @ @ @ @ @ @ @ @ @ d f f   @ @ @ @ @   @ ",
"@ @   d @ s f f f d   @ @ @ @   @ @ @ @ @ @ @ @   W ..P c q 7 *.f.8 i G P g f f @ @ @     @   @ @ @ @ @ @ @ @ @ @ @ @ @ @ @ @ @ ",
"@ @ @ @ @   d s @ @ @ @ @ @   s @ @ @ @ @ @ @ @ @ v P f g f g 8 k   @ f V d @ @   @ @ @ @     @ @ @ @ @ @ @ @ @ @ @ f f d @ @ @ ",
"@   @ @ @ @ @ @ @ @ @ @ @ @ @   @ @ @ @ @ @ @ @ @ d d d h h f f f     @ @ @ @ @ @ @   @ @ @     @ @ d @ @ @ @ @ @ @ d h f d f d ",
"@ @ s @ @   @ @ @ @ @   @ @ s   @ f f f f @ @ @ d     s f f f f @       @ @ @ @ @ @ @ @ @ @ @ # f d d d @ @ @ @ @ @ d f f d f @ ",
"s d f d @ d @ @ @   d @ @ @       1 f f @ @ @ @         s s @ s f f   d d @ @ @ @ @ @ @ @ @ @ @ f f f d @ @ @ @ @ @ @ d d @ @ @ ",
"d g g f d d d @ @ @ d d d d d d @ @ d d   @ @ @ @ @ @ @ @ @ @ f h h d f d @ @ @ @ d @ f @ @ @ @ d d s @   @ @ @ @ @ @ @ @ @ @ @ ",
"s f h d d @ @ @ @ d f g f f d @ @ @     @ @ @ @ @ @ @ @   @ @ f g f f f @ @ @ @ f f g g d @ @ @ @ @ @ @ @ @ @ @ @ @ @ @ @ @ @ @ ",
"@   d d @ @ @ @ @ @ f g f d   @ @ @ @ @ @ @ @ @ @ @ @ @ @ @ @ @ d @ d   @ @ @ @ d g f f @ @ @ @ @ @ @ @ @ @ @ @ @ @ @   @ @ @ @ ",
"@ d   d @ @ @ @ @ @ d d d @ @ @ @ @ @ @ @ @ @ @ @ @ @ @ @ @ @ @ @ @ @ @ @ @ @ @ d f d @ @ @ @ @ @ @ @ @ @ @ @ @ @ @ @ @ @   @ @ ",
"@ @ @ @ @   @ @ @ @ d   @ @ @ @ @   @ @ @ @ @ @   @ @ @ @ d @ d @ @ @ @ @ @ @ @ @ @ @ @ @ @ @ @ @ @ @ @ @ @ @ @ @ @ @ d d   d   ",
"@ @   @ @ @ @ @   @   @ @ @ @ @ @ @ @ @ @ @ @ @ @ @ @ @   g f f @ @ @ @   @ @ @ @ @   @ @ @   @ @ @ @ s d @ @ @ @   d f g g d @ ",
"@ @ @ @ @ @ @ @ @   @ @ @ @ @ @ @ @ d f d f d   @ @ @ @ @ f f d @ @ @ @   @ @ @ @ @ @ @ @ @ @ @ d d d d d     @ @ @ @ @ f f d   ",
"@ @ @ @ @ @ d   @ @ @ @ @ @ @ @ @ @   f f g f d @ @ @ @ @ @   @ @ @ @ @ d @ @ @ @ @ @ @ @ @ @ @   d g f g d   @ @ @ @ @ @ @ @ @ ",
"@ @ @ @ d f f f @ @ @ @ @ @ @ @ @ @ @   d f d @   @ @ @ @ @ @ @ @ @ @ d f f f   @ @ @ @ @ @ @ @ @ @ d d f @ @ @ @ @ @ @ @ @ @ @ ",
"@ @ @ d d f g h d @ @ @ @ @ @ @ @ @ @ @ @ @ @ @ d @ @ @ @   @ @ @ @ f d g z f @ @ @ @ @ @ @ @   @ @ @ @ @     @ @ @ @ @ @ @   @ ",
"@ @ @ d f d d f @ @ @ @ @ @ @ @ @ @ @ @ @ @ @ @   @ @ @ @ @ @ @ @ @ d d f f d @ @ @ @ @ @ @ @ @ @ @ @ @ @ @ @ @ @ @ @ @ @ @ @ @ ",
"@ @ d d d d d @ @ @ @ @ @ d d @ d @ @ @ @ @ @ @ @ @ @ @ @ @ @ @ @ @ @ @ @ d @ @ @ @ @ @ d s d @ @   @ @ @ @ @     @ @ @ @ @ @ @ ",
"@ @ @ @ @ @ @ @ @ @ @ @ d f f f d @ @ @ @ @ @ @ @ d s @ @ @ @ @ @ @ @   @ @ @ @ @ @ @ d l f @ @ @ @ @ @ @ @ @   d   @ @ @ @ @ @ ",
"@ @ @ @ @ @ @ @ @ @ @ @ d d f f @ @ @ @ @ @ @ d f d d @ @   @ @ @ @ @ @ @ @ @ @ @ @ d f f d @ @ @ @ @ @ @ @ f f f d @ @ @ @ @ @ ",
"@ @ @ @ @ @ @ @ @ @ @ @ @ @ @ @ @ @ @ @ @ @ @ d f f d d   d @ @ @ @ @ @ @ @ @ @ @ @ @ @ @ @ @ @ @ @ @ @ @ d f f f d @ @ @ @   @ ",
"@ @ @ @ @ @ @ @ @ @ @ @ @ @ @ @ @ @ @ @ @ @ @ @ d d @ @ @ @ @ @ @ @ @ @ @ @ @ @ @ @ @ @ @ @ @ @ @ @ @ @ @ @   d d @ @ @ @ @ @ @ "
};
