/* XPM */
static char *result[] = {
/* columns rows colors chars-per-pixel */
"64 64 230 2 ",
"   c #150027",
".  c #1B0328",
"X  c #25092A",
"o  c #2D0D2C",
"O  c #240729",
"+  c #320F2A",
"@  c #34112D",
"#  c #3B162B",
"$  c #2B1733",
"%  c #341331",
"&  c #331C34",
"*  c #3B1C33",
"=  c #37173A",
"-  c #2D1330",
";  c #3D293C",
":  c #392438",
">  c #38333C",
",  c #2E2E32",
"<  c #431A2D",
"1  c #471B2B",
"2  c #481C31",
"3  c #451D38",
"4  c #4D212C",
"5  c #52222D",
"6  c #5A272D",
"7  c #5D292D",
"8  c #4C2232",
"9  c #4B243D",
"0  c #472838",
"q  c #51253A",
"w  c #572936",
"e  c #49363B",
"r  c #55343B",
"t  c #5C3738",
"y  c #46372A",
"u  c #632D2D",
"i  c #6A302F",
"p  c #6A2E33",
"a  c #622C33",
"s  c #623635",
"d  c #6C3132",
"f  c #6A373B",
"g  c #743533",
"h  c #793731",
"j  c #7C3C3D",
"k  c #7B3A37",
"l  c #73342F",
"z  c #3D482F",
"x  c #3D531D",
"c  c #455A1E",
"v  c #505F1E",
"b  c #5A7E1F",
"n  c #54751E",
"m  c #51651D",
"M  c #495728",
"N  c #565828",
"B  c #484A37",
"V  c #564B38",
"C  c #575738",
"Z  c #4B5331",
"A  c #7E413E",
"S  c #634E3B",
"D  c #4E6B26",
"F  c #596C27",
"G  c #5B7E20",
"H  c #5B7429",
"J  c #597725",
"K  c #596934",
"L  c #597633",
"P  c #496B31",
"I  c #637A2B",
"U  c #667837",
"Y  c #656B32",
"T  c #3B2C41",
"R  c #3A3543",
"E  c #481D42",
"W  c #4C2644",
"Q  c #552B42",
"!  c #592C47",
"~  c #4B3B44",
"^  c #463543",
"/  c #5B3245",
"(  c #563B46",
")  c #593755",
"_  c #683744",
"`  c #6B3856",
"'  c #743C56",
"]  c #713843",
"[  c #3E4746",
"{  c #4E4248",
"}  c #584849",
"|  c #58544A",
" . c #584A54",
".. c #5A5554",
"X. c #654846",
"o. c #764848",
"O. c #665647",
"+. c #775B4E",
"@. c #684959",
"#. c #7E4954",
"$. c #784555",
"%. c #665B54",
"&. c #775C54",
"*. c #596648",
"=. c #686749",
"-. c #6A7347",
";. c #66645E",
":. c #696558",
">. c #717957",
",. c #726C55",
"<. c #7A5365",
"1. c #6C6E64",
"2. c #666C64",
"3. c #756965",
"4. c #6E7568",
"5. c #717A6C",
"6. c #747163",
"7. c #833E36",
"8. c #8D433A",
"9. c #88433A",
"0. c #92463B",
"q. c #9B4B3D",
"w. c #97493B",
"e. c #A24E3D",
"r. c #A6503F",
"t. c #854747",
"y. c #924B43",
"u. c #865448",
"i. c #975349",
"p. c #834C56",
"a. c #854D58",
"s. c #8A4959",
"d. c #8B525A",
"f. c #855158",
"g. c #93585E",
"h. c #AA5C4A",
"j. c #A65545",
"k. c #AC5B50",
"l. c #8F634D",
"z. c #886654",
"x. c #B9624B",
"c. c #BE694E",
"v. c #AB645F",
"b. c #BA6855",
"n. c #AF6D53",
"m. c #89496A",
"M. c #8C5265",
"N. c #955566",
"B. c #985371",
"V. c #A75B7A",
"C. c #AA5E69",
"Z. c #A76666",
"A. c #B36E6B",
"S. c #B2636D",
"D. c #B6716D",
"F. c #B9736E",
"G. c #B57D66",
"H. c #BF677F",
"J. c #B76A7A",
"K. c #BD7671",
"L. c #BF7675",
"P. c #AD6376",
"I. c #C66A4E",
"U. c #C66C53",
"Y. c #C77656",
"T. c #D57756",
"R. c #E37D5A",
"E. c #CC7968",
"W. c #DD7963",
"Q. c #D77769",
"!. c #CD6E71",
"~. c #C26A7D",
"^. c #C76E78",
"/. c #C67C74",
"(. c #CA7E75",
"). c #CB7378",
"_. c #D37474",
"`. c #CC6D6A",
"'. c #E17E60",
"]. c #5C811F",
"[. c #5E8121",
"{. c #628523",
"}. c #658924",
"|. c #698B25",
" X c #6A8A28",
".X c #6C853E",
"XX c #72844E",
"oX c #DB885A",
"OX c #C5915F",
"+X c #C7875C",
"@X c #E38056",
"#X c #E6815B",
"$X c #E8835B",
"%X c #EC8F5C",
"&X c #E28A5B",
"*X c #EA915E",
"=X c #ED9B5D",
"-X c #F2945F",
";X c #DD8366",
":X c #C89462",
">X c #CB8375",
",X c #D4867B",
"<X c #DA8B7D",
"1X c #D88677",
"2X c #D79D6B",
"3X c #E48564",
"4X c #EB9D62",
"5X c #E59765",
"6X c #E18C7A",
"7X c #E2917F",
"8X c #F19D62",
"9X c #ECA565",
"0X c #E7AD6B",
"qX c #EAAD6A",
"wX c #EBA868",
"eX c #F1A264",
"rX c #F2AC68",
"tX c #EBB16C",
"yX c #F0B56D",
"uX c #F1B86E",
"iX c #DCA06D",
"pX c #AE5F81",
"aX c #BC6983",
"sX c #B86582",
"dX c #C47285",
"fX c #CD7983",
"gX c #C97483",
"hX c #D88784",
"jX c #E39281",
"kX c #E18F81",
/* pixels */
"G b G G G G b G G G G G G G G b G G G D , X                                         . , P [.G G G G G G ].n [.J ].].[.[.[.[.[.[.",
"[.[.[.G G G G G G G G b G G G G G b I | > o X X X X X X O O X X X X O O X O X X X X X , P [.G G G G G G ].J [.].[.[.[.[.[.[.[.[.",
"}.}.[.G G [.G {.[.[.b G b G G [.G I -.%.r 8 < 1 2 2 2 2 2 2 2 2 2 2 2 2 2 2 2 2 1 2 8 r *.L [.G G [.G G [.].].[.[.}.[.[.[.[.[. X",
"}.{.[.G G G }.|.}.G G G G G G G I >.,.+.A A A j j j j j j j j k j j j j j j j j j A j A %.1.L J [.[.[.[.[.n ].J [.[. X[.G [.[.[.",
"[.[.G G G G [.{.[.G G G G b [.L =.X.o.i.h.x.c.c.x.x.x.x.x.x.x.x.x.x.x.x.x.x.x.x.c.I.x.j.i.O.} *.P }. X[.[.[.].].[.[.[.G G G G G ",
"G G G G b G G G G G G G G [.I =.{ w o.j.T.R.@X@XT.R.@X@X@XT.@XR.R.oX@X@XR.R.@XR.@X@XR.T.h.j w ~ *.[. X[.[.[.J ].[.G [.G G G G G ",
"G G G b G G G G G G G G G G Y o.S f i.c.@X-X-X-X-X-X-X-X-X-X-X-X%X-X-X-X-X*X%X-X-X-X-X&Xb.i.A S %.*.[.[.J ].].].G G G G G G G G ",
"G G G G G G [.b G G G G H O.o.+.y.h.c.oX=XeXeXeXeXeXeXeXeXeXeXeX8X8XeXeX8XeXeXeXeXeXeX4X+Xc.i.y.#.%...P J [.n [.[.n G G G G G G ",
"G G G G G G G G G G G H V r X.y.c.Y.&X=XwX0XqXqXqXqX0X0XqXqX0XqXqXqXqXqX0XqXqXqXqXqXqX9X4XoXT.c.y.f ~ | P J b b [.n [.[.[.[.].J ",
"G G G G G G G [.G b J Y t w t.h.T.*X8X9X0XtXtXqXqXqXqXtXqXqXqXtXqXqXqXqXtXqXqXqXtXtXqXqXeX=X*XT.h.t.w } *.J [.[.[.[.n G n [.].[.",
"G G G G [.[.[.[.[.G Y o.f 9.j.Y.3X4XrXtXtXtXtXtXtXtXtXtXtXtXtXtXtXtXtXtXtXtXtXtXtXtXtX0XqXrXeXoXY.j.9.o.+.K n }. X[.[.G [.[.n [.",
"G G G G [.{.{.{.[.F X.9.j.c.Y.oX5XwXrXqX0XtXtXtXtXtXtXtXtXtXtXtXtXtXtXtXtXtXtXtXtXtXtXtXtXrX9X5XoXY.x.j.u.X.N n [.[.[.G ].n ].[.",
"b G G G [.{.[.[.H V w 9.c.oX*X4XwXqXqXtX0XtXqXtXqXtXqXtXqXtXqXqXqXtX0XtXqXqXtX0XqXqX0XtXqXtXtXwXwX*XoXc.9.t > c n [.G G ].[.[.[.",
"G G G G G G [.[.K 0 w y.Y.=XeXeXqXtXtXtXtXtXtXtXtXtXtXtXtXqXtXtXtXtXtXtXtXtXtXtXtXtXtXtXtXtXtXqXrXeX*XY.i.w , c n [.n [.[.[.[.[.",
"G G b G G G [.].N E w i.+X4XrXyXtXtXtXtXtXtXtXtXtXtXtXtXtXtXtXtXtXtXtXtXtXtXtXtXtXtXtXtXtXtXtXtXrXrXeX+Xi.r , z n [.[.[. X X X[.",
"G G G G G G G [.Z E r l.+XwXrXyXtXqXtX0XqXtXqXtXqXtXqXqXqXtXtXqXqXtXqXtXtX0XtXqXtX0XtXqXqXtXqXtXtXrX9X+Xu.r : z D G [.[.[.[.[.[.",
"{.[.[.[.[.[.b J V = r l.:X0XuXtXtXqXqXqXwXwXwXwX9XwXwXwXqXwX9XqX9X0XwX9XwXwXrXeXwXwXwXwXqXqX0X0XuXuX0XOXl.t : z D G G G G G G [.",
"|.{.{.{.[.G [.K ^ & r l.:X0XuXuXtXqXwX9X4X4X4X9X8X8X4X4X4X4X4X4X4X4X4X4X4X4X8X-X4X4X9X4X9XwXqXtXuXuX0XOXl.r & > Z D J G b G G n ",
"C C H L J H K { $ @ r l.:X0XtXuXtXqX9X*X%X%X%X%X-X%X%X-X-X%X%X%X5X%X-X%X*X-X-X%X%X%X%X*X=X9X0XtXuXuX0XOXl.r - $ > z B x c x x x ",
"$ $ & T ~ } ^ = o * ( z.OX0XuXtXtXwX4X5X$X$XR.R.$XR.R.R.$X$X$X$X$XR.$X$X$XR.R.R.@XR.#X$X*X4XwX0XtXuX0XOXl./ & - $ $ : : , & & & ",
". . X 3 E ! ! E W Q o.n.OX0XrXqXwX4X5X3X#XW.W.W.W.W.W.W.T.W.W.W.W.W.W.W.W.W.W.W.W.W.W.'.3X5X9XwXrXyX0X:Xn.o.! E E W W 0 & X X . ",
". O o E ` s.m.' @.$.M.G.2X0XrXeX=X5X;XQ.!.!.!._.!.!._.!.).!.!.!.!.!.!.!.!.!._._.!.!.!._.Q.;X*X=X9XrXwX2XG.M.$.@.$.p.#._ 3 % O . ",
". O % ! s.C.S.P.V.V.A.>XiXqXeX=X%X3XQ.!.^.aXH.H.dXH.~.aXH.H.aXaXH.dX~.~.aXH.aXaX~.dX~.~._.Q.3X*X=X9X0XiX>XD.V.V.P.J.Z.d./ * X . ",
"o = E ' N.S.^.~.aXaXaX>XwX9X4X5X#XW.Q.^.aXsXpXV.V.pXV.sXaXaXaXsXsXaXaXaXsXpXV.V.V.V.sXaX^.`.W.#X*X=X9XiX2XaXsXsXH./.A.N.o.r , & ",
"> B X.<.N.M.N.P.sXdXgX_.5X4X5X;XQ._.!.).dXP.V.m.m.m.V.sXaXdXdXaXdXdXdXdXP.B.m.m.m.B.sXdX).)._.W.3X5X5X5X1XfXaXpXP.N.g.+.N N v v ",
"].G F +.@.` ' m.V.dX).1X3X3X3X_.!.^.).fXfXJ.M.` ! ` M.J.fXhXhXhXfXfXhXfXJ.N.' ) ` M.J.).fXfX^.!._.3X3X3X1XgXaXpXm.$.f N F b b n ",
"b [.{.U @.) W ` B.P.^.Q.'.R.W._.dXdXgXhX(.D.p.Q 3 ! a.D.,XkXhX<XhXkXhX,XD.p.! 3 Q #.A.hXhXgXdX~.!.W.'.'.Q.^.V.B.` Q y m b b b b ",
"G b {.[.:.@.) ` m.B.C.`.W.3XW._.dXdXfXhX,XA.$.9 % 9 #.A.<XjX7XkX6XjXjX<XA.p.E o 9 $.A.,XhXfXdXdX).W.R.T.`.C.B.m.` e M b G b b b ",
"G G b G G -.3.<.` ` s.k.T.R.'._.fXfXhXkXhXA.o.3 o 3 #.A.1X7X7X<X<X7X7X<XD.#.3 o 3 o.A.,XkXhXfX(.1X'.R.T.k.s.' @.X.N b G G b G G ",
"G G [.G b b -.3. .Q ] i.U.R.3X6X1XhXhXkX,XA.#.9 % 9 p.A.1XjXjX<X<X7XjX,XA.p.9 % 9 $.A.,XkXjXhX1X6X'.R.U.i.f ! _ C J G G G G G G ",
"G G G G b b I ,. .: w y.I.R.'.Q.(.(.,XhX,XF.d./ 9 / d.K.<X7XjX7XkXjXkX<XK.d._ 9 / d.D.,XhXhX/./.W.3XR.I.y.w * V Y }.{.G G G G G ",
"G b G G b G ].-.) @ w 0.I.R.T.U.v.Z.A.>X,X(.Z.a.$.a.Z.(.hXjXjX7X7XjXjX<X/.Z.p.$.a.Z./.hX>XD.Z.v.`.T.R.I.y.w # y n }.{.G G b G G ",
"].[.[.G b b ].U ( % w i.I.R.U.i.] o.g.D.,X,X/.A.Z.A./.,XkXjXjXkXjXjXjXkX,X/.A.Z.A./.,X,XD.g.$.o.i.I.T.I.y.w < M m b b b b G G {.",
"{.{.[.G b ].].I O.Q 8 y.I.U.h.j q 9 $.Z./.,X,X(./.(.(.,X<X<XhX<X<X<X<XhX,X>X/./.>X,X,X/.Z.$.q q ] h.U.I.y.a 4 N G {.{.{.G G {.|.",
"}.}.[.G [.[.{.|.U +.o.u.h.h.t.a 2 3 / p.Z.D.K.D.D.D.A.D.A.D.A.D.D.A.D.D.D.D.A.D.F.F.F.Z.p./ * < a y.h.h.u.S S F |.|.|.{.G G G }.",
"[.[.G G G b [.{.I U z.f.u.j d 8 # < 9 _ #.a.a.a.a.a.p.p.#.p.#.s.#.#.p.#.p.p.p.a.a.s.p.$._ 8 < < 8 p 7.u.l.+.Y J b {.{.b G G G G ",
"G G G G G b G [.I b U z.X.8 5 4 4 4 8 8 9 q W E 9 9 9 9 E 3 W 9 9 9 E 3 9 9 W 9 9 W 9 9 8 8 4 1 8 8 8 X.,.-.J b G G G G G b G G ",
"G G G G G G G G ].b -.6.~ < < 5 6 6 5 # + + + + @ % % % @ + @ @ % @ % @ @ @ % @ + o o + < 4 6 6 5 2 < } :.Y b b G G G G G G G G ",
"G G G G G G G G G b U 3.( 2 5 a i i w 1 + + + # < < < < < < < 1 < < < < < < < < # + + # 2 6 p i u 5 2 ( :.=.H b G G G G G G G G ",
"G G G G G G G G [.I O.X.f p g 7.7.k i 6 4 1 5 a a p p p p p p d p p p p p p p a u 6 1 1 6 p 7.7.k g p f X.%.C F {.G G G G G b G ",
"G [.b G G G b G G K ( p j y.w.w.w.8.k p u 6 p 7.7.0.0.8.7.0.8.7.7.7.7.7.7.7.w.7.7.l 7 7 p k 7.w.w.y.7.j f 0 W D {.b G G G G G G ",
"G G G G [.[.[.[.H C q f y.j.j.j.e.0.h p 6 u g 7.8.w.w.e.e.e.e.e.j.e.j.j.q.e.q.7.7.7.u 7 p h w.e.j.h.j.y.f 2 $ Z {.{.G G G G G G ",
"G G G G [.}.{.{.J V r ] i.b.b.h.j.0.h u 5 5 6 g 7.8.w.e.e.e.e.e.r.r.r.r.e.w.7.7.l u 5 5 a h 7.e.h.I.b.j.] 9 = B n G G G G G b b ",
"G G G [.{.{.{.[.H Z Q #.S.`.U.b.j.7.p 5 # # 2 6 l 7.8.w.e.e.e.e.e.e.r.r.e.7.7.l 6 1 + < 5 g 0.j.b.U.E.Z.p.q = z n G G G I G b G ",
"G G G G [.[.].b J V ( f.F._.E.U.j.y.d 2 + + # 5 u l 7.0.w.q.q.q.w.q.r.q.7.7.l u 5 # + + 1 p t.h.U.E._.D.d.Q ; R D [.G [.{.{.{.b ",
"b G G G G G G b J B ! M.K.1X1XE.b.j.] 2 + O + 1 u i l 7.7.8.8.7.7.7.7.7.7.7.i 6 1 + O + 2 j k.b.!.1X1XK.d.q ; z D b G G {.|.}.].",
"[.[.G b G G G ].J Z ( d./.<X7X6X(.v.t.q + O + 1 6 u i l h h h h 7.7.l l 7.l u 6 1 + O + q t.v.E.6X7XjXK.d.Q T B F ].G G {.}.{.[.",
"{.].[.G G G G G J C { d.F.,X6X6X1XD.d.w + O # 4 6 u i i i i i p l p i u u u u 6 4 + + + ! s.D._.6X7X,XK.f./ ^ B J ].b G b ].b b ",
"|.{.[.{.[.b G G ].H | &.Z.L./.>XL.A.&./ ; & : w t s s s s s 7 s s a t s s s s s 8 8 & : ( f.Z././././.Z.a.@.| K G [.G G G G G G ",
"|.{.{.[.G G G G [.[. X=.M.d.g.N.M.#.$.( ^ ^ r } S X.X.X.X.} V s s V t X.X.X.X.X.} ~ ^ ^ ( $.f.d.g.g.d.f.3.:.K H [.G G G G G G G ",
"[.[.[.[.G b G G [.}.}.U | ! Q r ! ! {  . .....%.%.%.%.:.%.O.X.} } X.%.%.:.:.%.%.%..... . .( ( ! ! Q Q @.:.U G G G G G G G b G G ",
"G G b b G G G G [.[.[.[.C T $ o - T R  .2.2.4.1.6.1.1.6.;.;...} } ..%.;.1.6.1.1.1.4.2.2. .^ & $ o o ; | K G G G G G G G G [.G G ",
"G G G b G G b b G G [.G J Z R T   $ R  .1.5.5.5.4.4.4.1.2... .~ { } ..2.2.4.4.5.5.5.5.2...T $ . $ R { D [.[.G G G G G G G [.[.[.",
"G G b G J G J G G G G G [.G P [ , $ R  .2.5.5.5.5.4.2.2...} ^ T T ~  .%.2.1.4.4.5.XX5.2...R $ $ R Z J [.G G G G G G G G [.[.}.{.",
"G G G G b G G G n [.G G G G J P R , R  .2.4.5.5.4.2.;... .~ ; & & ; ^  .%.;.2.1.5.5.5.2. .T $ : z J [.[.[.[.[.[.G G G G G [.{.{.",
"b G G G ].b G G n [.G G G G G J R T > | ;.6.6.>.;.:.%.} { ~ ^ ^ R ^ ^ {  ...%.3.1.6.1.3...T $ , P J [.[.[.{.{.[.b G G G G G [.G ",
"[.[.[.[.{.{.[.G [.[.G G G [.].G R & R } &.,.&.&.%.| { ^ ^ { ..;.:...{ e ^ { X.%.:.&.z.&.X.0 , , M J b [.[.{.G G G G G G G G b G ",
"G [.[.{.}.|.[.b G ].G G G n ].J T = 0 t u.i.+.o.S t 0 * ; | >.-.-.>...; : 0 r S o.u.u.u.A 0 $ , D G b G G G b G ].G G b G G [.G ",
"G [.{.[.{.{.[.G G G G G G G b G B 3 8 f 9.9.9.g a 8 * * ^ :.*.L L XX:.R & # 8 7 f 9.9.9.f 8 & , n G G G G G G G G G G G G G G b ",
"G G [.[.[.[.G G G G ].G [.G [.G F ( _ ] f k f 6 5 8 ^ { *.-.L G [.-.XX:.} e w 5 7 p k j f ( y M n J G G G G b G G G G G G G G G ",
"G G G G G G G [.G G [.[.[.}.}.[.G Y X.X.s 5 2 < 1 ( %.-.-.L H G [.L XXXX>.%.r 8 < 2 5 s X.} N I G G G G G G G G G [.[.G G G G G ",
"G G G G G G G b G G [.[.{.[.[.G G G O.} 9 # @ o * | ,.-.L J [.G ].[.J .XXX>.} : + + # 9 O.S I [.G b G G G G G [.{.{.[.[.b G G G ",
"[.G b G b G G G G G G G [.J G G G G C | ; X X . & | *.L G G G G b G G G XXXX| $ . O O : } V F ].G b G G G G G [.{.{.[.G b G [.b ",
"b G G G G G G G b [.G G G G G G b b C e & . .   & { C F [.G b G G G G G J -.| & . . . + y N F G G G G G G G G G [.[.[.G G G G G "
};
