/* XPM */
static char *_3fed56cefac4601e354910f7d0c1f25ciXn2W8vh6DLgYI0[] = {
/* columns rows colors chars-per-pixel */
"17 18 10 1 ",
"  c None",
". c #200529",
"X c #5F2B2C",
"o c #584A4C",
"O c #6E7468",
"+ c #9E4C3D",
"@ c #EA8056",
"# c #DC8C7E",
"$ c #EAB06B",
"% c #B66387",
/* pixels */
"     .......     ",
"    .@@@@@@@.    ",
"   .@$$$$$$$@.   ",
"  .@$$$$$$$$$@.  ",
"  .$$$$$$$$$$$.  ",
"...$$@@@@@@@$$...",
".#%$@%%%%%%%@$%#.",
" .%@%#.###.#%@%. ",
"  .@##.###.##@.  ",
"  .@.#######.@.  ",
"   .X.......X.   ",
"  .++X+++++X++.  ",
"  .#+.X+++X.+#.  ",
"  .##.XXXXX.##.  ",
"   ..OOOoOOO..   ",
"    .OOo.oOO.    ",
"    .+X. .X+.    ",
"     ..   ..     "
};
