/* XPM */
static char *df910044f54a40f6d41b68c88a008111TJv1nIwdexTyHvwG[] = {
/* columns rows colors chars-per-pixel */
"18 18 9 1 ",
"  c None",
". c #200529",
"X c #5F2B2C",
"o c #584A4C",
"O c #9E4C3D",
"+ c #EA8056",
"@ c #DC8C7E",
"# c #EAB06B",
"$ c #B66387",
/* pixels */
"     .......      ",
"    .###++++.     ",
"   .######+++.    ",
"   .#######+++.   ",
"   .########++.   ",
"   .$$######++.   ",
"   .@.###@##++.   ",
"   .@.+##@##++.   ",
"   .@@+##$##++.   ",
"    .@$##+##++.   ",
"     ...###++.    ",
"      .O...+.     ",
"      .OOXX.      ",
"      .@OXX.      ",
"      .@@oo.      ",
"       .oo.       ",
"      .OOX.       ",
"      ....        "
};
