/* XPM */
static char *result[] = {
/* columns rows colors chars-per-pixel */
"64 64 226 2 ",
"   c #160126",
".  c #1B0229",
"X  c #1F1225",
"o  c #230729",
"O  c #260A2B",
"+  c #2A0C2B",
"@  c #330E2A",
"#  c #2C102D",
"$  c #34132C",
"%  c #3A142C",
"&  c #3B1A2E",
"*  c #2B1431",
"=  c #351C34",
"-  c #3B1D34",
";  c #391E38",
":  c #371631",
">  c #3C2336",
",  c #3A2238",
"<  c #3A2839",
"1  c #2D2B26",
"2  c #4B1E2B",
"3  c #451B2D",
"4  c #491D32",
"5  c #451E39",
"6  c #511F30",
"7  c #4D232D",
"8  c #53222D",
"9  c #5D2A2D",
"0  c #5B272D",
"q  c #4A2936",
"w  c #432C3D",
"e  c #4B2638",
"r  c #522333",
"t  c #592936",
"y  c #582837",
"u  c #4A343B",
"i  c #59353B",
"p  c #583539",
"a  c #4A3F2C",
"s  c #622C2C",
"d  c #682E2D",
"f  c #612A34",
"g  c #6A2F34",
"h  c #673639",
"j  c #733534",
"k  c #7D3D3D",
"l  c #763839",
"z  c #75362F",
"x  c #5A7E1F",
"c  c #535939",
"v  c #7D453F",
"b  c #6C493B",
"n  c #566A29",
"m  c #5B7E20",
"M  c #5E7C2A",
"N  c #5B752A",
"B  c #5B6C35",
"V  c #617A2C",
"C  c #647B37",
"Z  c #616635",
"A  c #451D41",
"S  c #4D2442",
"D  c #552D42",
"F  c #582E43",
"G  c #512743",
"H  c #443542",
"J  c #4A3C45",
"K  c #463A45",
"L  c #5A3C44",
"P  c #543A42",
"I  c #643748",
"U  c #743C41",
"Y  c #733B5A",
"T  c #7B3F5D",
"R  c #4E4449",
"E  c #53464A",
"W  c #544E4D",
"Q  c #5A4C4D",
"!  c #584345",
"~  c #56514E",
"^  c #58534B",
"/  c #5C5851",
"(  c #644545",
")  c #6A4542",
"_  c #674B4B",
"`  c #794843",
"'  c #63594B",
"]  c #7E5548",
"[  c #7A5649",
"{  c #774753",
"}  c #675853",
"|  c #795C56",
" . c #686D46",
".. c #687749",
"X. c #626353",
"o. c #6B6A56",
"O. c #766957",
"+. c #6B7553",
"@. c #6F7B54",
"#. c #6A7155",
"$. c #717D54",
"%. c #75775A",
"&. c #717F4D",
"*. c #843D39",
"=. c #843D36",
"-. c #83413C",
";. c #8B443A",
":. c #95473B",
">. c #8D4A43",
",. c #864943",
"<. c #924B43",
"1. c #994F45",
"2. c #885749",
"3. c #9C5549",
"4. c #854C57",
"5. c #8D535A",
"6. c #875857",
"7. c #93585C",
"8. c #A35243",
"9. c #AC5B48",
"0. c #A45849",
"q. c #B25E4A",
"w. c #92654E",
"e. c #966B52",
"r. c #856256",
"t. c #B7614A",
"y. c #BA644C",
"u. c #B86656",
"i. c #A67756",
"p. c #BA7856",
"a. c #AA6355",
"s. c #9C5573",
"d. c #8E5062",
"f. c #A45C75",
"g. c #9D6464",
"h. c #8D6462",
"j. c #A76669",
"k. c #AA7464",
"l. c #B7756D",
"z. c #BA6B7D",
"x. c #BD7671",
"c. c #BB7674",
"v. c #AC6573",
"b. c #C56B4E",
"n. c #CA6D4F",
"m. c #C1664D",
"M. c #D2704F",
"N. c #CE6E50",
"B. c #C36E50",
"V. c #D97754",
"C. c #C57753",
"Z. c #E37C55",
"A. c #E77E57",
"S. c #C57567",
"D. c #DB7D69",
"F. c #C77A76",
"G. c #D37879",
"H. c #E37F61",
"J. c #5C801F",
"K. c #5D8121",
"L. c #5F8028",
"P. c #628523",
"I. c #668924",
"U. c #698A25",
"Y. c #61812C",
"T. c #69882F",
"R. c #698637",
"E. c #6F8447",
"W. c #71854D",
"Q. c #728C46",
"!. c #718153",
"~. c #788757",
"^. c #7A914C",
"/. c #B8865B",
"(. c #C4895B",
"). c #CA965F",
"_. c #EB8156",
"`. c #EA8558",
"'. c #EB8B5B",
"]. c #E4865B",
"[. c #F28356",
"{. c #F38558",
"}. c #F18A5B",
"|. c #EC935E",
" X c #E5935E",
".X c #F1935E",
"XX c #DE8369",
"oX c #CA9561",
"OX c #CB9662",
"+X c #D79D65",
"@X c #CC8179",
"#X c #D3857B",
"$X c #D4897C",
"%X c #D88877",
"&X c #DD9B74",
"*X c #DD937B",
"=X c #DA9573",
"-X c #C2856A",
";X c #E38E66",
":X c #EA9660",
">X c #EB9B62",
",X c #E49B67",
"<X c #F19A62",
"1X c #E38B7B",
"2X c #E39D75",
"3X c #E19679",
"4X c #D7A166",
"5X c #DBA366",
"6X c #ECA365",
"7X c #EAA867",
"8X c #E2A46C",
"9X c #E5AB6C",
"0X c #EAAE6B",
"qX c #E8A569",
"wX c #F1A364",
"eX c #F1AD69",
"rX c #EBB26B",
"tX c #F1B56D",
"yX c #F4B96E",
"uX c #E5A471",
"iX c #E7A970",
"pX c #AD5D80",
"aX c #B86784",
"sX c #C87982",
"dX c #D58180",
"fX c #E38C81",
/* pixels */
"m x m m x x m m m x m m m x m m x x x n X                           .     .     1 x x x x x m m m m m m m m x x m x m m m J.m x ",
"m P.K.P.K.m m m m m m x m m m m x V B < + X O O O O o o O O O O O O O O O O O O a N x x x x m m m m m x m m K.K.J.K.m m P.P.P.K.",
"K.I.I.P.x m m K.K.P.K.m x x m x V ~.o.u 7 q q q q q q q r 4 3 7 4 4 4 4 4 4 4 4 q B m x x m m m x x m m m m P.P.P.P.K.x P.I.I.m ",
"K.P.I.P.K.m x K.I.I.K.x m x x L.$.O.O.[ 2.[ ] ] ] [ [ v ` v k l U *.U *.k k ,.U -.` V x x m x m P.V m m x x J.I.I.P.m m m P.m m ",
"x K.K.m m m m J.P.P.K.x x m m  .' | e././././././././.p.p.t.t.q.q.q.t.y.q.q.m.y.q.0.2.Z m J.K.P.I.I.P.x x m m P.P.K.m m m m m m ",
"m x m x m m m m x x x x m K.C ^ P 2./.OX0X0X5X9X9X9X7X5X X]._.].Z.].Z.Z.Z.Z.Z.A.Z.b.<.i p B I.P.I.I.J.m m m m m m m x m m m m m ",
"m m m m m m x m m m x x m V o.) [ e./.rXyXyXyXyXyXyXtXtX6X.X.X.X.X<X.X}.{.[.{.{.[.M.9.,.h ' C K.J.J.x m m x m m m m m m m m m x ",
"m x m m m m m m m m x x V  .O.w.i./.5X0XtXyXrXrXrXrXrXrX7X6XeXwXwX<X<X.X`.[.{.{.A.Z.b.t.1.,.| Z m x x m m m m x x m m x m m m m ",
"m m m m m m K.K.m m J.x c b r./.+X5X0XrX0XrXrX0XrX0XrX0X0X0X0X0X0X7X6X:X'.`._._._.Z.Z.V.b.3.U L c M x x m K.m m m m m m m m m m ",
"m m m m x m m K.m x J.n > p w.).rXyXrXrX0X0X0X0X0X0X0X0X0X0X0XrXrX0X0X>X X'._._._._.[._.Z.t.,.t L #.Y.m m K.K.K.m m m x m x m m ",
"m m m m m m K.K.V J.J.c > i w.).tXyXrX0X0X0X0X0X0X0X0X0X0X0XrXrXrX7X0X6X>X|.'.`._._.[.{.A.M.9.;.` | %.W.L.K.U.P.m m m m m m m x ",
"m m m m m m K.P.P.I.m ^ > p w.).rXyXrX0XrX0X0XrXrX0X0X0X0XrXrXrXrX0X0X0XqX6X>X'.`._._._.A.Z.M.m.0.,._ } +.Y.K.K.x m m m m m m m ",
"m m m m m m K.K.K.K.M W > p w.oXrXrXrXrX0X0XrXrX0X0XrX0X0XrX0X0X0X0X0X0X0X0X6X|.'._._.A._._.A.Z.b.>.t w / C K.m m x x J.m m m m ",
"m m m m m m m m m K.M W , p w.oXrXyXtXrXrX0X9XrX0X0X0X0X0X0X0X0X0X0XrXrXrX0X7X X|.'.]._._._.{.`.N.<.t = W $.K.m m x P.I.I.m m m ",
"m m m m m m m m m K.E.W , i w.).rXyXrXrXrXrX0X0X0X0X0XrX0X0X0X0X0X0XrXrXrX0X0XqX>X:X'.'._.{.{._.N.<.t : E !.K.x m x P.I.I.P.P.J.",
"m m m m m m m m m K.!.~ > p w.oXrXtXrXrX9XrX0X0X0X9XrXrX0X0X0X0X0X0X0X0XrX9X0X0X7X6X:X'._._.[._.N.<.t - W !.m x m m x P.P.K.P.K.",
"m m I.V J.J.J.x x K.!.W > i 6.(.uXiX9XuX9X9X9XrX0XrX0X0X0XrX0X0X9XrXrXrX0X0XrX0XrX7X|.'._.[.[.A.n.<.y - ~ !.m m m m m m m m m m ",
"K.I.U.P.P.P.J.x x L.!.~ > G 6.l.$X*X$X=X&X&XiXrX0XrX0X0X0X0X0X0XrXrXrXrX0X0XrXrXrX7X6X X_._.[._.n.<.t - ~ @.m m m m m m m m m m ",
"m P.I.K.P.K.x x x K.~.~ ; S { v.aXdXdXdXdX&XiX9XrXrX0X0X0X0X0XrXrXrXrXrX0XrXrX0X0XqX>X'._._.[._.N.<.t - ~ !.K.m m m m m m m m m ",
"m m m m m x m x m m ~.~ ; S T s.aXaXaXaX-X$XuXrXrXrX0X0X0XrX0X0XrX9XiX0X0X0XrXrXrX7X|.'._._.[.A.b.<.y > W !.m m m m m m m m m m ",
"m x x m m x m m m K.!.~ A A T f.aXpXs.s.f.-X&X9XrXrXrXrX0X0XtXiXiXiXiX9XrX0XrXrX0X7X|.|._._.[._.B.<.t - ~ !.m m m m m m m x m m ",
"m m m m m m m m m m !.W ; S 4.v.aXf.T Y | k.4X9XtXrX0X0XrX0X0XiXuX&XuXuX9X9XrXrX0XqX|.'._.[.[._.N.<.t - W !.L.m m m m K.K.K.K.m ",
"m m K.x m m m m x K.$.~ ; D 5.l.z.d.I A L e.oX9XtXrX0X0XrX0X0XuX2X*X*XuXiXrXrXrXrX7X6X'._._._._.n.<.y - W !.m m m m m K.I.P.K.m ",
"m m x m m m m x x L.$.~ , D 5.l.S.5.D - q r.oX5XtXrX0XrXrX0X9XuX2X*X*X2X8X0XrXrX0XqX>X'._._.[._.n.<.y - ~ !.m m m m m K.P.K.x m ",
"x m m m m K.K.J.x m !.~ , F 7.F.x.5.e $ e ,.(.,XwXrXrXrXrXrX9XuX3XfX*X2XuXrXrXrX7X7X>X'.`._.[.A.n.<.y - ~ !.K.m m m m m m m m m ",
"m m x m J.P.P.P.x L.@.W > F 5.x.x.4.S # 3 ,.C. X6XwX0XrXrXrX9XuX*X*X3X2XuXiXrXrX0X7X>X'._.[.[._.n.<.y > ~ !.M m m m m m m m x m ",
"m x m K.P.P.I.I.K.R.!.~ , F 7.x.x.5.F 5 r >.B.`.<X6X7XrXrXrX9XuX*X*X*X2XuX0XrXrX0X7X>X'._._.[._.n.<.y - W !.m m m m m m x m m m ",
"m m m J.P.K.P.P.m R.$.W ; D 5.x.F.j.{ F U 8.M.[..X6X7XrXrXrXiX2X*X$X$X*XuX0XtXrX0X7X>X'._._.[._.B.>.y , W !.m m m m m m m m m m ",
"m m m m m m m m m R.@.W * F 5.x.#Xx.g.5.3.u.V.A..X6X0XrXrXrX9X2X$X#X@X$X&X0XrXrXrX7X>X'.[.A.{.A.n.<.y - ~ !.m m x m m m m m m x ",
"m m x K.m x m m K.Y.!.W ; D 5.F.$X$XF.x.x.V.A.A.|.6X0XrXrXrX9X=XdXaXsX$XuX9XrXrX7X7X>X'._.[.[.A.n.<.t - W !.K.m m m m m m m m m ",
"x m m x m m m m K.K.!.X.J I 4.v.@X#X$X#X%XH.H.;X|.6X0XrXrXrX9X=X@XaXF.$X&XrXrXrX0X7X>X'._._.{.A.N.<.t - ~ !.I.K.P.m m x m m m m ",
"m m m m m m x m m m Q.!.o.} | h.j.l.#X1X1X1XD.D.;X,X0XrXtXrX9X=X@XF.F.$X&XrXrXrXrX7X>X'._.[.{._.M.<.t = E !.T.P.P.m m m m x m m ",
"J.K.K.K.J.m m x m J.L.Q.~.~.| _ { 7.F.%XfXdXG.F.%X2XrXtXrXrX9X,XXXXXXX+X,X0XrXrXrX0X>X X_.[.{.[.n.<.y : E !.L.K.K.K.m m K.P.P.K.",
"K.U.I.P.m m m K.J.L.m m Q.~.#.E i { j.F.#XsXaXz.F.=X5XrXrX0X0X>X X].'.|.qX0XrXrXrX6X|.'._.A._.Z.b.:.y w ~ !.K.I.K.P.m x K.I.P.J.",
"K.I.P.P.K.x m K.P.U.K.m K.Q.!.X.Q { 7.j.v.f.s.s.j.k./.).4X9X0XwX|..X|.|.eX0X0X0X7X6X|.'._.V.V.b.9.,.( Q #.W.P.I.U.P.K.m K.P.K.K.",
"J.K.K.K.m m x K.P.P.m m m K.Q.~.#.O.| T 4.{ Y Y { [ r.i./.5XrXtXwXwXwXeXeXrXeXqX>X|..X}._.M.q.1.,.[ %.%.W.P.x K.P.K.m m x m m x ",
"x m m x m m m m K.K.m x m x m Q./.!.X.H S S A S 5 A i ` i.OX0XtXeXeX0XrXtXeX7X>X'.'.}.{.A.m.>.h ! O.~.Q.L.x m m K.m m x x m m m ",
"m m m m m m m x K.m m m m m m L.R.~.o.K = * O o o O = i 2./.4X4X5X5X+X4X+X+X+X XA.A.A.Z.N.0.U P Q $.R.L.x m m x x m m m m m x m ",
"m x m m m x m m m m m x m m m x L.W.!.o.E < + o O @ 3 y ` e.i.i.i.i.i.i.i.i.C.V.Z.Z.M.q.8.2.[ } +.V K.m m m m m m m m m x m m m ",
"m K.x m m m m x m m m m m m x m K.L.Y.!.+.~ , O % 6 f h h h U ) ) ) ) ) ( ` 3.B.Z.Z.q.>.U _ O.$.R.m m m m m m m m m m m m m m m ",
"m m m m x x m m m m m m m m m m K.x m K.E.X.H # 6 g *.*.g 4 5 : > & - & & 7 v 9.N.C.1.h P / ~.Q.K.x m m m K.K.K.K.x m x m m m m ",
"m x m m m K.J.K.x K.m x m m x K.m m x x L.+.R * 6 l *.*.g 4 @ @ + + + o o % t :.q.q.>.( ~ #.E.m m m x m m P.U.P.K.x m m m x x m ",
"m m m m x K.K.P.P.P.m m m m m x m x x m K.+.K : 6 l :.*.*.g 6 2 % % @ @ @ % 8 z -.2.O.O.@.!.m x m m m m m K.P.P.x m m m m m x m ",
"m m x m m J.P.I.P.K.m m x m m m x K.x x m +.R $ 6 l :.:.*.*.l g 0 8 2 2 7 7 7 8 y ( O.~.Q.m m x m m m x x K.m m m m x m m m m m ",
"m m x m m K.J.J.m m m m x m m m m m m m K.+.K : 4 l <.8.8.:.:.=.z s 0 9 9 8 2 % $ J @.W.L.x N x m x m m m m m m m m P.P.L.m m m ",
"m m m x m m m m m m m x m m m m x m m m m #.K : y -.0.q.q.8.:.;.z d s s s 9 2 @ + J +.K.m m m m m m K.m m m x m m m K.I.P.K.P.K.",
"x m J.K.m m m m m x m x m m m x m P.P.K.L.+.K - y 5.u.B.q.9.:.;.z d s s s 9 2 @ + K +.K.m m m m P.K.P.J.x m m x m m K.I.P.K.K.J.",
"J.K.K.K.K.m x m m m m m m m m m x K.P.P.P.+.K - I d.F.S.m.9.:.*.z s s 9 9 0 2 @ + K +.L.x m m m P.P.P.x m m m K.x m m J.J.x K.m ",
"K.I.U.K.K.K.K.x x m J.K.K.K.J.K.m m K.m m +.K - I g.F.%XS.u.8.>.l h s t p 0 7 $ + K +.M x m m m K.K.J.m m m x m m m m m m m m m ",
"J.P.I.I.K.K.K.K.x K.I.I.I.K.J.x x m m x m #.H - I j.#X%XXXS.u.3.` b p u p p q : + H @.I.K.m m m m m m m m m m m x m m m x m x m ",
"m J.K.K.K.x x x m K.K.I.I.K.m m m m m x m  .K - I j.G.3X%X#Xx.j.2.( ! b ! i w = # K +.I.x m m m m m m m m m m m m m m m x m m m ",
"m m J.x x x x x m x K.K.K.m m m m m m m m M W < I 7.F.$XfX#X-Xk.6.Q Q E E ! H ; , E @.m x m x m m m x m x m m m m m m x K.m m m ",
"m m m m m x N x m m m x x m m m m m m m m m N ' } 5.j.l.c.c.l.h.O.} E J J K J R ~ o.!.K.x m m m m m x m m m x m m m m K.K.J.m x ",
"m m m m m x m m x m m m x m m m m m m m m m K.M %.| { { 6.h.h.h.} Q E J H H Q o.@.W.L.m x m m m m x x J.K.x m m m x m P.P.I.P.m ",
"x m m x m m m m m x m m m m x m m m K.P.K.K.J.K.!.X.P e P Q } } Q Q J H = < } !.L.K.m m m m x m K.K.K.K.K.m x m m m m m P.P.J.x ",
"m m m m m m J.m m m m m x m m m m m K.P.P.I.P.x m } w 5 u L _ _ _ ! J A * < X.E.m x m m m m m m x K.I.I.I.m x m x m m m m m m m ",
"m x m J.K.P.P.K.m m m m x m m m m m m K.K.K.L.K.M ' y y i b ` ) ( L u > # > X.R.m m m x m m m m x m K.P.V m m x m m m m m x m m ",
"m m m K.K.P.U.U.K.m m m m m m x x m m m x K.m M Z b l k *.,.,.v b h y & # = / M K.m m m m m m x m x m x x x m m m m m x m m m m ",
"m m m K.P.P.K.P.m m m m m x m m m m x K.J.N c u c d *.;.<.:.;.*.j 9 7 3 $ H X.K.x m x x m x m m m m x m x J.m m m m m m m m m m ",
"m m J.K.K.K.J.m m m x m m K.K.m K.m x x K...H # 3 9 l *.*.=.k j f 8 q u R X...K.x m m K.K.J.K.m m x x x x x m x x m m m m m m x ",
"x m m m x m m m m m m m K.I.K.P.K.x m x m ..K + $ 3 t f f t 0 6 2 3 u ' #.W.m m x m m K.I.P.L.m m m m m x m m x K.m m x m x m m ",
"m m x m m m m m m m m m K.K.P.P.m m m x K.+.K o + $ % % : % % @ # : P o.~.P.m m m m m P.P.K.m m m m m m m m P.P.P.K.m m x K.m m ",
"m x m m m m m m m x m m m m K.m m m x x M +.K + o o o o o o + . o + R $.R.m m m m m m K.K.x m m m m m m m K.P.P.P.K.m m x m x m ",
"m m m m m x m m m m m m m m m m x x J.J.L.+.J o . . . . .   . . . + R @.M m m m m m x m m m m x m m m m m x x K.K.x m m m m m m "
};
