/* XPM */
static char *result[] = {
/* columns rows colors chars-per-pixel */
"64 64 222 2 ",
"   c #160126",
".  c #1B0229",
"X  c #220729",
"o  c #260A2B",
"O  c #2A0C2B",
"+  c #240727",
"@  c #330E29",
"#  c #2B112D",
"$  c #201325",
"%  c #34122C",
"&  c #3A142C",
"*  c #3B1A2E",
"=  c #2B1431",
"-  c #351B34",
";  c #3B1C34",
":  c #381F38",
">  c #371630",
",  c #3B2135",
"<  c #3A2239",
"1  c #3A2737",
"2  c #4B1E2B",
"3  c #45192E",
"4  c #491D32",
"5  c #451E3A",
"6  c #511F30",
"7  c #4C222E",
"8  c #52232D",
"9  c #5C2A2C",
"0  c #5A272D",
"q  c #4A2836",
"w  c #442B3C",
"e  c #4B2638",
"r  c #522433",
"t  c #592634",
"y  c #592935",
"u  c #582C39",
"i  c #49323D",
"p  c #59353B",
"a  c #59363A",
"s  c #632C2C",
"d  c #612A34",
"f  c #6A2F34",
"g  c #673539",
"h  c #743533",
"j  c #7D3D3D",
"k  c #763939",
"l  c #75362F",
"z  c #5A7E1F",
"x  c #545232",
"c  c #6D413D",
"v  c #7B463F",
"b  c #795D3D",
"n  c #576B27",
"m  c #5B7E20",
"M  c #5D7C28",
"N  c #597424",
"B  c #596936",
"V  c #607A29",
"C  c #667A3A",
"Z  c #69603E",
"A  c #461D40",
"S  c #4D2442",
"D  c #582E43",
"F  c #552A42",
"G  c #463B45",
"H  c #4B3C45",
"J  c #463543",
"K  c #583C44",
"L  c #643648",
"P  c #733B5A",
"I  c #7B3F5D",
"U  c #713942",
"Y  c #4F4549",
"T  c #5A4345",
"R  c #544649",
"E  c #544E4D",
"W  c #574B4B",
"Q  c #56514C",
"!  c #5C594B",
"~  c #5C5852",
"^  c #644545",
"/  c #6A4542",
"(  c #634C4C",
")  c #6D4C47",
"_  c #794947",
"`  c #665549",
"'  c #7E5548",
"]  c #77574C",
"[  c #784655",
"{  c #675853",
"}  c #785B58",
"|  c #676546",
" . c #6A7548",
".. c #696754",
"X. c #766956",
"o. c #6B7452",
"O. c #6F7F53",
"+. c #6C7258",
"@. c #717D54",
"#. c #747759",
"$. c #72724F",
"%. c #853E39",
"&. c #87433B",
"*. c #91443A",
"=. c #984A3D",
"-. c #884A43",
";. c #924A43",
":. c #984F45",
">. c #875649",
",. c #9C5549",
"<. c #844C58",
"1. c #8D535A",
"2. c #885958",
"3. c #94575C",
"4. c #A35243",
"5. c #AB5B49",
"6. c #A65848",
"7. c #B25E49",
"8. c #92654E",
"9. c #966B53",
"0. c #856256",
"q. c #B6614B",
"w. c #BB644B",
"e. c #B86656",
"r. c #A67756",
"t. c #BA7855",
"y. c #A5675E",
"u. c #9C5574",
"i. c #8E5062",
"p. c #A45C75",
"a. c #9D6464",
"s. c #8D6462",
"d. c #A66668",
"f. c #AA7464",
"g. c #B8756D",
"h. c #AD6672",
"j. c #BA6B7D",
"k. c #BD7671",
"l. c #BB7674",
"z. c #C96C4F",
"x. c #C4694E",
"c. c #CE6F50",
"v. c #C36E51",
"b. c #CA7452",
"n. c #D47251",
"m. c #DA7854",
"M. c #E37C55",
"N. c #E67E57",
"B. c #C57567",
"V. c #DB7D69",
"C. c #C77A76",
"Z. c #D27879",
"A. c #E27F60",
"S. c #5D801F",
"D. c #5E8121",
"F. c #5F8028",
"G. c #628523",
"H. c #668924",
"J. c #698A25",
"K. c #62822A",
"L. c #6A8B28",
"P. c #698339",
"I. c #6F8448",
"U. c #748B4C",
"Y. c #71854D",
"T. c #718152",
"R. c #79845A",
"E. c #B6855B",
"W. c #BA885C",
"Q. c #AE8059",
"!. c #C4895C",
"~. c #CA965F",
"^. c #EB8156",
"/. c #EA8458",
"(. c #EB8C5B",
"). c #E5865B",
"_. c #F18356",
"`. c #F38558",
"'. c #F18A5A",
"]. c #EC935E",
"[. c #E5935F",
"{. c #F1935E",
"}. c #DE8369",
"|. c #CA9561",
" X c #CB9662",
".X c #D79D65",
"XX c #CD827A",
"oX c #D3857B",
"OX c #D48A7C",
"+X c #D88777",
"@X c #DD9B74",
"#X c #DD927B",
"$X c #DA9573",
"%X c #C28669",
"&X c #E38E66",
"*X c #EA9560",
"=X c #EB9B63",
"-X c #E49B67",
";X c #F19A62",
":X c #E28B7B",
">X c #E39D75",
",X c #E1957A",
"<X c #E19878",
"1X c #D9A265",
"2X c #ECA365",
"3X c #E9A866",
"4X c #E3A56B",
"5X c #E5AB6B",
"6X c #EAAE6B",
"7X c #EAA569",
"8X c #F1A364",
"9X c #F1AC69",
"0X c #EBB26B",
"qX c #F1B56D",
"wX c #F4B96E",
"eX c #E4A471",
"rX c #E7A971",
"tX c #AD5D80",
"yX c #B86784",
"uX c #C87A82",
"iX c #CD8180",
"pX c #E38B82",
/* pixels */
"m z m m z m m m z m m m z m m m m m m z D.M G .         . .                           $ N z m m m m m m m m z z m m m m m S.m m ",
"m G.D.G.D.z m m m m m m D.z z m m z m m m  .H o o o o o o O o o o o o o o o o + o $ o # x N z m z m m m m m D.D.z D.m z D.H.G.D.",
"D.H.H.G.z m z D.D.D.S.m m m m m z m S.S.M X.T e 4 4 4 4 4 4 4 4 4 4 4 4 q q q q q q q q x | M z z m z m z m D.H.G.G.D.m D.J.G.m ",
"m G.H.G.D.m z D.J.J.D.m z m m m z G.S.V #.X._ &.v &.U j U j j j j j _ -._ ' ' ' ' ' ' ] ] } $.m G.m D.m z D.S.H.H.G.z m D.G.D.m ",
"m D.D.D.z m m D.G.G.m m m m m D.z H.H.! ( >.6.7.w.w.w.7.q.q.q.q.7.q.q.t.t.E.E.E.W.E.W.E.Q.9.] ! C J.G.z z m D.D.G.D.m m m m m z ",
"m z m m m m m z m m m m m m m G.G.K.| K g ;.x.M.N.N.M.M.M.M.M.M.M.).).[.4X4X1X3X5X1X6X6X1XQ.' a Z P.K.m z z z z m m m z m m m m ",
"m m z m z m m m m z m m m m m S.V $.) g %.5.n._._.`._.`.'.{.;X;X].].8X8XqX0XwXwXwXwXwXwX6X|.9.' ^  . .P.V z S.z m m m m m m m m ",
"m m m m m m m m m m m m m m m m C { >.:.7.v.M._._._._.'.*X;X;X;X8X8X8X9X9X0XwX0X0X0XwX0X6X.XW.r.8.X.X.+.T.K.z z z m m m m z m m ",
"m m m m m m m m m m z m m m m n a _ ,.x.m.M.N.N.^.^./.(.*X7X6X5X3X3X3X0X0X5X0X0X6X0X0X6X0X5X1X1XE.0.^ Y ..Y.m m m m z m m m m m ",
"m z m z z m m m m m m m m m V x d -.7.M._.^._.N.^.^.(.[.-X3X6X0X0X0X6X0X6X6X0X6X6X6X6X6X0X0XwX0X~.8.a < E T.D.D.N z m m m m D.z ",
"m m m D.m m D.D.m G.z m m m V v &.5.c.N._.`._._./.(.].=X3X3X0X0X0X0X0X0X6X6X6X6X0X6X6X0X6X0XwX0X~.8.K > Y T.L.H.z z m m m z z m ",
"z m z D.N m H.H.G.G.m m m m b 6.x.c.M.^.N.N.N._.(.=X=X3X6X0X0X0X6X6X0X6X0X6X6X0X6X6X6X6X6XwXwX0X~.8.p < E T.D.D.S.z m m m m m m ",
"m m m m z m D.D.D.D.z z m n *.x.M.N.^.N.^.^.^.(.].-X3X0X5X6X0X6X6X6X6X6X6X0X6X6X6X6X6X6X6X0X0X0X|.8.p , E T.F.m D.S.S.S.D.z m m ",
"m m m z z m m m D.m m z N a ;.c.^.`._.^././.(.[.=X7X6X0X0X0X6X6X6X6X6X0X6X6X6X6X0X6X0X0X0X0XwX6X~.8.a , E T.D.m z S.G.G.H.D.D.m ",
"z m m m m m z m z m S.D.n u ;.z._.`.^././.(.*X=X7X3X0X0X0X0X6X6X6X0X6X6X6X6X6X0X5X6X0X0X0XwXwX0X~.8.p , E T.D.z m z D.L.J.D.D.S.",
"m z D.m m m m m m m S.N 7 y ;.z.^._.^./.(.*X2X3X6X6X6X6X6X0X6X6X6X6X6X6X6X0X6X6X0X6X6X6X0X0XwX6X|.9.a , E T.m z m m D.G.G.D.D.D.",
"m D.H.D.m D.z z m m D.N , y ;.x.N.`.^.^.(.=X3X6X0X0X0X0X0X0X6X6X6X6X6X6X6X6X0X0X0X5X5XeXeXeXeX4X%X>.a < E T.m z S.m m m m m m m ",
"D.H.L.G.G.G.m m m z m Q : t ;.c.N._._.^.(.=X3X0X0X0X5X0X0X5X0X0X6X6X0X6X6X6X0X0X5X5XeX@X#X#X#XOXg.2.i , E T.V D.m m m m z m m m ",
"D.D.H.D.G.D.m z m S.K.Q ; y ;.x.^._._.^.(.=X3X0X0X5X6X0X0X0X0X6X0X6X0X6X6X0X0X0X0XrX@XOXiXuXuXuXh.[ S : E T.m z m m m m m m m z ",
"z m m m m m m m m m K.Q , y ;.c.^._.N.^.(.=X3X6X0X6X6X6X0XrX6X6X6X6X6X6X6X6X0X0X5XeXOXl.yXyXyXyXp.I S : E T.D.z m m z z m m m m ",
"m m z m z m m m m D.Y.E : y ;.x.N._.^./.(.=X3X6X0X0X6X6X5XrXrXrX6X6X6X6X6X6X0X0X0X1X%Xp.u.u.tXyXp.I S : E @.D.m m z m m z m m z ",
"m m z m m m z m m D.O.E ; y ;.c.^._.^.^.(.=X3X6X0X0X6XrXeXeX>XeXrX6X6X6X0X6X0XqX5X.Xf.} P I u.yXp.<.F : E @.m S.m m N D.D.D.D.m ",
"m m m m m m m m m m T.E , y ;.x.^._.^.^.(.=X3X6X0X0X6XrX>X<X,X>XrX5X6X0X6X6X0XqX6X|.9.L S L i.k.j.1.F < E T.V z z m m D.H.H.D.m ",
"m z m m z m m m m D.T.E : y ;.c.N._.^./.(.=X3X6X0X0X6XrX>X,X#X<XeX6X0X6X0X6X0X0X3X|.>.e ; F 1.k.k.1.D : Q T.D.z m m m m G.D.D.m ",
"m m m m m D.D.z z m T.E , y ;.x.^._._.^.(.=X3X6X6X0X6XrX<X,X#X,XeXrX6X0X0X6X0X3X=X!.-.7 = e 1.k.C.1.D < Q T.D.z m m m m m m m m ",
"m m m S.S.G.G.G.z m T.E , y ;.c.N._.^.^.(.=X3X6X0X0X6XrX>X,X,X,XeX6X0X0X0X6X9X8X].b.-.3 # S <.k.k.1.D < Q T.F.D.m m m m z m m m ",
"m m m D.G.G.H.H.m M O.E ; y ;.z.^._._.^.(.=X3X6X0X0X5XrX>X#X#X<XeX6X6X0X0X6X2X;X&Xz.-.6 ; D 1.k.k.1.D < E T.F.D.m m m m m m z m ",
"m m m S.G.D.G.G.m m T.E ; y ;.z.^._.^.^.(.=X3X6X0X0X5XeX#XOXOXOX>XrX6X0X0X3X2X{.N.c.,.U L [ d.C.k.1.F - E T.F.m m m z m z m m m ",
"z m z m m m m m m D.T.E < u ;.z.^.^.^.^.(.=X3X6X0X0X5XeXOXiXuXoX@X5X0X0X0X6X2X{.^.m.e.:.1.a.k.XXC.1.D - Y T.F.z m z m z m m m m ",
"m m m m m m z m m m T.E < r ;.z.^._.^.^.(.=X3X6X0X0X0X@XOXuXuXXX$X6X0X0X0X3X2X]._.N.V.B.g.C.oXOXk.2.u : E T.D.D.m D.m m m m z m ",
"m z m m m m m m m F.T.E : y ;.z.^._.^.^.(.=X3X0X0X0X0X@XXXl.uXC.$XrX0X0X0X6X=X[.&XA.&X+X+XOXOXXXd.<.K H { Y.G.G.G.D.m m z m m m ",
"m m m m z m m m m K.T.Y - y ;.z.^._._.^.(.].6X0X0X0X0XeX$XC.C.Z.$X5X0XqXqX0X-X&XV.V.V.:X:XoXl.d.3.} } ..O.K.D.G.G.S.m m m m m m ",
"D.D.D.D.D.m m m D.D.T.Y > y ;.v._.`.^.^.(.=X3X0X0X0X3X7X}.}.V.}.-X5X0XwX0XqXeXOXZ.Z.+XpX:XC.3.[ Z |  .V D.m D.D.z D.m z G.G.G.z ",
"D.H.H.H.z m m D.D.F.T.~ w y ;.v.N.^.^.^.(.=X3X0X0X0X6X3X[.).).[.-X3X6X0X0X1X$XC.j.j.uXuXC.d._ x n N z S.z m G.G.G.G.m m G.H.G.z ",
"D.D.D.H.m m m D.H.L.U.+.Q ^ -.6.x.n.M.N.(.].3X3X0X0X0X3X2X{.{.{.9X3X6X1X XW.f.d.u.u.p.h.d.9.` V G.m z z z m m J.J.G.z m m G.G.z ",
"D.D.D.D.m z m D.H.D.G.R.#.X.] -.:.7.n.^.'.].].].2X6XqX9X9X8X8X9X9XqX1XW.r.>.[ [ P P P [ [ | V H.H.G.D.z m m z G.G.z z m m m m z ",
"S.m m m m m m m D.D.m F.U.R...^ f ;.w.M._.'.'.].=X2X9XqX0X0X3X9XqX6X~.r.) p 5 5 A A A w a M H.D.H.J.m m m m z m D.m m m m m m m ",
"D.z m z m m m m m m m D.P.U.#.Q a _ 6.z.M.N.^.).[..X.X.X1X X1X1X1X1XE.>.a - o o o = = - n D.D.D.D.G.m m m m m m m m z m z m m m ",
"z m m m m m m m m m m m m F.U.+.{ ] -.6.w.n.M.^.!.b.r.r.r.Q.r.r.r.r.8._ u 3 @ o . = 1 B M D.m m m m m m m z m m m z m m m m z m ",
"m m m m m m m m m m m m m D.F.U.R.X.) k &.q.n.m.z.,._ / c ) c c / c L k f d 2 & o 1 E M m D.z m m m m m m m m m m m m m z m m m ",
"m m m m m z z m m z m m m m z D.U.R.{ i g 4.v.n.5.v q - * ; * * ; 7 q d %.%.f 4 @ J ..M m m m m m m z D.m D.D.D.D.z m m m m z m ",
"m m m z m D.D.D.m D.m m m z m z F.U.+.E ^ -.7.7.*.d % o + o @ + # % 4 f %.=.h 6 % H +.m z z m m m m m z m G.J.H.D.m m z m z m m ",
"m m m m S.D.D.G.G.G.m m m m m m m F.Y.@.X.} >.-.l 8 & @ @ @ & & 2 8 d k =.%.k 6 > H o.m z m m z z m m m m D.G.D.z m m m z N z m ",
"z m m m D.S.G.G.G.D.z m m m m z m m F.U.R.X.^ r 8 8 2 2 7 2 8 9 f k %.*.=.%.k 6 % H o.D.z m z D.m m m m m m m m z m m m z m m m ",
"z m m m z D.S.m m m z m m m z m m m m m U.+.Y % & 7 8 9 9 s s h %.%.=.4.4.=.U 6 > H o.m m m N S.m z m m m m m m m z D.G.G.D.m m ",
"m m m m m m m z m m m m m m m m m m m D.F.O.G O @ 2 9 s s s s l %.=.4.5.7.4.j t > G o.M m m m m m m D.m m m m z m D.G.J.H.D.G.D.",
"m m D.S.z z m m m m m m m z m m m D.D.D.G.o.G O @ 7 9 s s s s l *.=.7.7.v.e.<.D - G o.m m N m m G.D.D.S.m z z D.m m D.G.G.D.D.S.",
"S.D.D.D.m D.m m m z m m m m m m m G.H.G.K.o.G # @ 7 0 s 9 9 s l %.=.7.x.B.B.3.L ; H o.m z m m m G.G.G.D.m m m z m m z D.S.m m m ",
"D.G.J.D.D.D.D.m m m D.D.D.D.D.S.z m G.z m +.G # % 7 9 a s s g c &.,.e.B.+XC.d.L : G  .D.S.N m m D.D.D.z z m m m m m m m z m m m ",
"S.G.J.G.D.D.D.S.z D.H.D.H.D.S.D.m m z z m o.J o > w a a a a c _ ,.e.B.}.:XXXa.L - G  .H.D.m m m z m m m m m m m m z m m m m m m ",
"m m D.D.D.z m m m D.D.H.D.D.D.z m m z z m o.J # - w a T T K ( <.d.B.+X:X:XoXd.L ; H C D.S.z z m m m z m m m m m m m m m m m z m ",
"m S.D.S.m z m m m z D.D.D.m m z m m m z m  .R < , w Y W R W ( 2.d.%XoX+XOXC.i.L w R C D.m m m m z m m m m m z m m m z m z m m m ",
"m z m z m z N z m z m m D.z D.z m m m m m M +.Q Y G G Y Y Y ~ } a.f.%XyXg.d.2.} {  .m m z m m m D.z m m m m m m z m D.D.D.D.z m ",
"m m m m m m m m z m m m D.m m m z m m m m m M O.+.W J w J R ( { s.s.s.0.[ [ X.#.T.V m m m m m m m m S.S.D.m m z m m z D.H.G.S.m ",
"m m z m m m z m m z z m m m m m m m z K.m G.S.D.@.{ 1 < w H W { { { ~ K e J { R.F.m m m m m m m m D.D.D.D.z z m m m m D.G.G.D.m ",
"m m m m m m D.z m m m m m m m z z z z H.G.J.D.z m ! 1 = < H W ( ( W K F 5 w ..R.m m m m m m z m m D.H.G.H.D.z m m m m m m m m m ",
"m z m S.D.D.H.D.m m z m m m m z m m m D.D.D.D.S.D.! , # < a c / ) _ c p y a ` #.P.m m m m m m m z m D.G.m m m m m z m m z m m m ",
"m m m D.D.H.J.J.D.m m m m m m m m m m z m D.m z D.! - # * q a c v -.-.&.k k / ( ..o.V m m m m z m m m m m z m z z D.m m m m z m ",
"m m m D.H.D.D.D.m m m m m z m m z m m m m m m m m B 1 - * 8 y l j *.*.*.*.%.f t w Q C m m z m m N z m m m m m m m m z m z m m m ",
"m m S.D.D.D.D.m m m m m m D.D.m D.m m z m m m m m F.| T i q 8 s h k %.%.%.k t 3 O J o.F.D.D.D.m N z m m m m m z m m m m m m m m ",
"m m m m m m m m m m m m D.D.D.J.D.z D.m z m m z m D.D.+.` i 3 3 6 t d y d t 4 % O G o.G.H.H.G.m z z z m m m m z D.m z D.m m m m ",
"z m m m m m z m m m m m D.D.H.D.m m z m m m m D.F.D.D.I.+.Y % % @ & & & > & @ O o G o.G.D.D.D.m z S.m m z D.G.G.G.D.m z m m m z ",
"m m z m z m m m m m m m m m D.m m m m z m m m D.D.H.D.F.#.Y O X o X X X X o X X o G o.F.D.D.m m m m z m m m G.G.G.D.m m m z m m ",
"z m m m m m m m m m m m m m m m z m m m m m D.D.D.F.D.D.@.Y o . . . . . . . . . o G o.D.z m m z m m m m m z z D.D.z m m m m m m "
};
