/* XPM */
static char *result[] = {
/* columns rows colors chars-per-pixel */
"64 64 118 2 ",
"   c #274B11",
".  c #2B4E14",
"X  c #2E5214",
"o  c #315515",
"O  c #365916",
"+  c #3A5E16",
"@  c #34551B",
"#  c #365919",
"$  c #3B5C1B",
"%  c #3D6116",
"&  c #3F611B",
"*  c #3A5722",
"=  c #3C5A23",
"-  c #3E6121",
";  c #406517",
":  c #456A17",
">  c #42651A",
",  c #456A19",
"<  c #496C1A",
"1  c #4D721A",
"2  c #52751C",
"3  c #54791C",
"4  c #5A7E1E",
"5  c #415E24",
"6  c #425E29",
"7  c #446324",
"8  c #476A20",
"9  c #4C6C24",
"0  c #45632B",
"q  c #48652D",
"w  c #4C692D",
"e  c #516E2E",
"r  c #537423",
"t  c #577B20",
"y  c #5B7E20",
"u  c #55732B",
"i  c #58762C",
"p  c #5E7E2B",
"a  c #496630",
"s  c #4E6B33",
"d  c #516D36",
"f  c #526D38",
"g  c #557234",
"h  c #5A7635",
"j  c #5D7C32",
"k  c #537038",
"l  c #59743D",
"z  c #5F7B3C",
"x  c #607F24",
"c  c #627E36",
"v  c #627D3B",
"b  c #5F7741",
"n  c #5D7841",
"m  c #637D43",
"M  c #57801E",
"N  c #5D821D",
"B  c #61861E",
"V  c #658A1E",
"C  c #698D1F",
"Z  c #6D911F",
"A  c #5E8123",
"S  c #5F8820",
"D  c #628524",
"F  c #668B23",
"G  c #698D24",
"H  c #63842B",
"J  c #698D2A",
"K  c #669023",
"L  c #6B9324",
"P  c #6E9926",
"I  c #6C9429",
"U  c #6F9929",
"Y  c #719523",
"T  c #739B25",
"R  c #799E24",
"E  c #719529",
"W  c #739C2A",
"Q  c #789E2C",
"!  c #648332",
"~  c #698736",
"^  c #6A8934",
"/  c #66833B",
"(  c #69863D",
")  c #6C8A3C",
"_  c #718E3F",
"`  c #729F30",
"'  c #77A127",
"]  c #7BA225",
"[  c #75A22A",
"{  c #7AA52C",
"}  c #7CAB2E",
"|  c #7EB02F",
" . c #77A531",
".. c #7AA630",
"X. c #7DAD31",
"o. c #7FB030",
"O. c #668146",
"+. c #698445",
"@. c #6D8A43",
"#. c #678149",
"$. c #6C854A",
"%. c #6E894B",
"&. c #718D45",
"*. c #728C4C",
"=. c #749046",
"-. c #75914B",
";. c #79934C",
":. c #80A72A",
">. c #81AC2D",
",. c #83B22F",
"<. c #82AC31",
"1. c #83B432",
"2. c #89B431",
"3. c #86BA33",
"4. c #8ABD35",
"5. c #8CC137",
"6. c #8EC439",
"7. c #90C739",
/* pixels */
"y 4 4 y y y y y 4 y y 4 y y y D 4 y y A A y y y A ! ) A A @._ y y ) ) y y ) -.S y H A y y H A y y A y y y y 4 4 4 y y 4 y 4 4 y ",
"y D A D N y y y y y y y y y ~ &.H D -.*.) H D *.;.*.l &.A $.*.J H $.*.H ! m #.*.~ *.&.D @.$.*.A 4 A ^ A ! y A A y N y y D D D D ",
"y F F D y y 4 A D x 4 4 4 x @.w +.*.$.e l $.@.#.l f @ O.@.0 g -.@.0 l ) %.* a f m 6 @.~ n @ a ! ^ $.%.*.c y D D D D y 4 x F D 4 ",
"y D F D 4 y 4 A F F D 4 t p u o $ w 0 o o $ s = o X O & * o O $ * O o * $ , O X o o a l * X * O.z = s s e c D D G D y y 4 D D 4 ",
"y y D 4 y 4 y y D y 4 2 + O . . % ; X O 3 < $ o 1 1 B N O : 3 X X 3 : X , Y 4 ; 3 < o : < O . X O X O o @ < t D D y 4 y 4 y 4 y ",
"4 y y y y y y y 2 o o O O ; , + 3 V 4 3 Y T Z 3 L T T P 2 V L % : L N , G ' :.T T M : V C & X : 4 3 V : & o $ t y y y y y y y y ",
"y 4 y 4 y y y 2 . . % 1 V N C 4 V L T Y Y Y R R T ' T T T T W I P T T I P ' R ] T L K L K M 2 V Y T T C V O X $ y y y y y 4 y 4 ",
"y y y y y 4 , o . + Z T Y L L G G C G Y Z G F P T W [ [ [ T W ' [ W W K P ' T T P T P P L K K K C K Y R T B : o < y 4 y y y y y ",
"y 4 y y y r o % ; 3 :.Y Z C K C K L I G G D A I ' [ [ [ [ [ E E T E E I ` [ [ W ' U W P P K P K K C K K T R V O o 2 y y y 4 y y ",
"y y y y t > o N T Y R L G Z K F F P P G J x A P { [ { } } [ I J D G W I [ { [ T P [ E I K P P K L K C C Z ] Z % X o 2 y y y 4 y ",
"y 4 y y < O : B R Z Z K G G G G K P P [ E D F [ } } } } } [ U J y J [ W { X.} W F G D G P P P P P K Z G C C Z B ; o > t y y y y ",
"y y y y , + V T R Y L C C D D K K P [ [ [ W [ } } } X.X.X.[ U [ U [ o.o.o.X.o.{ J A A J [ [ [ P P P L I K C G C N % o 4 y y 4 y ",
"y y y y 3 o M Y L L L G F x y G P [ [ [ [ } | | | | o.| } ] W X.o.1.o.1.o.o.o.o.} W I P {  .[ [ T P P G G G L C B < O t D 4 4 4 ",
"y 4 y y 3 O N T Z C G F D y A E [ [ } [ U  .o.o.| | 1.1.:.} o.1.3.3.1.3.3.3.1.o.o.o.{ } } } }  .[ P G D G G G L Y B > D D x N 4 ",
"y y 4 t & X 3 L F C K L L D G [ [ } } X.[ U | o.| 1.3.1.>.} ,.3.3.3.3.3.3.3.o.3.o.o.o.o.| } } { W J y x D D K Z R N < ^ G D D A ",
"y y y + o o : C F D K P P I W [ { } X.o. .U { 1.3.1.5.3.,.{ ,.4.3.3.3.3.3.3.3.o.<.1.1.1.o.| { P I D D y D K K Z Y 1 o 9 ! D D 4 ",
"x B D 2 < 4 V G V S L U [ I I ` } } o.1.o.U [ o.2.2.4.3.,.{ ,.4.4.3.4.3.4.4.1.{ <.3.3.1.1.1.` I P [ [ P P P P L Z M + > c A y y ",
"x F J H t x Z K L K P U ' [ I I  .} o.| 1.o. .X.2.2.4.4.4.:.,.4.5.5.5.4.4.4.:.>.1.3.3.1.2.<. .[ ..} } [ [ P L L T R , w ^ A y y ",
"4 D D x p , N K K P P ' [ { [ [ } o.o.3.3.3.1.<.<.<.3.4.4.,.3.4.5.4.5.5.4.,.>.1.3.5.3.1.:.<.<.<.o.X.} [ [ [ P P T Z % s %.H y y ",
"y y x t , + 1 N P P W ' [ } | | | | 3.3.3.4.2.<...Q X.5.4.5.4.6.4.4.4.6.4.,.<.4.5.3.4. .Q :.<.<.o...W P U W T P R N % $ %.H y y ",
"4 y x t + 1 D F I P [ [ { } o.o.1.1.,.3.3.4.3.X.W E Q 3.5.5.4.4.6.2.4.7.6.4.4.6.5.5.3.[ W Q Q <.1.} U I I U P W T G > 6 #.*.D y ",
"y D c u # 3 L G H F [ } } o.o.o.1.3.,.>.>.4.4.1. .{ ..3.7.5.4.2.2.1.2.6.6.4.4.4.5.5.3.1...` Q 2.1.o.} { W [ [ W [ C 1 o 7 %.D 4 ",
"@.s & > % 2 G G A S W } | | 1.1.3.3.,.,.>.<.>...X.4.6.4.7.7.4.2.<...<.4.4.2.5.6.5.5.5.4. .W X.3.1.1.o.U U { [ [ T Z 2 - *.^ D y ",
"y f > : Z L E G K P { } } o.o.1.3.3.4.4.2.:.:.Q <.4.7.7.7.4.6.,.Q E  .1.X.3.6.6.5.5.5.5.3.1.3.3.1.1.o.J J I W [ P N O a ;.-.~ y ",
"x &.h % Z R P P [ [ } } } ,.1.3.3.3.5.5.5.3.>.{ >.4.6.6.6.6.6.2.W Q X. .X.4.7.6.6.6.4.6.4.4.4.3.3.1.} H D E [ [ P 3 % & & - n @.",
"p &.h O 1 Y R T W [ } } X.1.1.3.3.3.3.5.4.4.4.4.4.4.6.6.7.6.7.6.X.4.6.4.4.7.6.4.4.6.6.4.5.4.5.3.3.3.X.S F [ } [ W P L D , k @.A ",
"y z r 1 B R T P I W } } >.<.1.1.3.3.5.5.6.6.6.6.6.6.6.6.6.7.6.5.6.6.7.6.6.7.4.>.>.>.2.4.5.5.4.3.3.3.o.I D E { { [ ' K r %.) H A ",
"y H ! p 4 Y T W P U { } { { ] ] >.,.3.4.4.4.6.6.6.6.6.6.7.6.6.7.7.7.6.7.7.6.6.2.1.,.<.2.4.4.4.4.3.3.3.o.{ E [ [ [ T 1 + n %.( A ",
"y *.v 7 & V ] ] [ { } ,.{ W W E { { >.,.5.6.7.7.6.6.6.6.7.6.5.7.6.7.6.7.6.7.6.7.7.4.4.4.4.6.6.3.5.3.3.o.o.| { [ [ [ Z N , + 0 $.",
"H m $ O N T T [ [ } } } } I D I { :.:.>.3.5.2.2.>.,.6.6.6.1.,.2.6.6.7.6.7.6.7.6.4.7.7.4.6.5.3.4.3.3.3.1.1.o.} } [ [ T R F 8 k %.",
"y ) c w 2 C T T { [ [ W I G D ..4.,.,.,.4.4.2.:.W Q 3.6.,.>.>.4.7.6.6.6.6.7.6.7.7.7.7.4.1.1.3.5.3.o.1.3.| | | { [ ] :.V , n %.A ",
"y A A A g $ 1 P [ } { W J D Q 3.4.5.5.5.4.5.4.<.{ E [ >.>.>.,.5.7.6.7.6.7.6.6.6.4.4.4.1.>.4.6.3. .o.o.o.| | } } ' } ' M # f -.A ",
"y y A ~ s o 1 P [ } } o.| } 1.3.4.6.6.4.7.7.4.<.<.:.<.:.<.4.4.4.4.6.7.6.7.7.4.<.<.4.2.2.4.4.4.3.3.1.` I [ } } { { ' N % l -.J A ",
"A F F p o % N U [ } | o.,.3.3.4.4.4.4.4.4.4.2.4.4.2.>.2.4.4.4.<. .4.7.7.6.6.<.` 1.4.5.5.6.6.5.4.3. .S S J E { { [ { L 1 g ;.J A ",
"y D F ~ 7 % 3 P [ } | | ,.1.1.1.3.4.4.6.7.4.6.6.4.1.4.7.7.7.4.<.Q ` 1.7.6.6.X.W 1.6.6.6.4.4.4.4.X.G H I U  .}  .[ T V < O q ) y ",
"y A A r 1 F P [ [ } } | | | >.{ } <.4.4.4.7.6.6.7.4.4.7.7.7.4.2.<. .X.4.6.6.3.<.2.2.4.6.6.6.5.4.{ I I J I I W [ [ V % # #.@.A y ",
"y y t o ; Z ] [ [ } } } ,.o.,.| :.>.3.4.4.6.6.6.7.7.7.7.7.6.4.7.4...2.6.4.,.4.6.4.4.6.6.5.5.5.4.<.{ X.W I I I I [ K , @ $.A A y ",
"y N y & o 3 R T [ } } | o.o.1.3.3.3.4.4.6.6.6.6.4.7.4.4.6.7.7.7.4.2.6.7.4.<.>.4.6.6.4.6.5.5.4.5.3.1.1.o.X. .[ U I A & @ a ! A y ",
"y y y 3 + B R W P [ { | | 1.1.3.3.4.4.5.6.4.6.6.7.5.2.2.6.6.7.6.7.4.5.7.5.4.>.,.4.4.1.1.4.5.4.3.3.3.1.1.<.} } [ K % X = @.A t A ",
"y y y y + 4 ] W I F [ } o.1.1.3.3.4.4.3.1.1.4.6.6.6.1.<.4.6.6.6.7.4.6.6.6.6.6.1.2.4.>.>.1.3.5.3.3.3.1.o.X.} } [ W < X = ~ A 4 y ",
"y y y y $ V R T P D I } } | 1.1.1.1.<.>.:.>.4.6.6.5.<.>.4.6.4.2.4.7.7.7.6.6.6.4.1.3.2.1.>.1.4.3.3.1.1.o.X.} [ [ P 3 X * %.A 4 4 ",
"y 4 y y 4 T E G J F W } | o.1.1.X.Q W :.>.1.5.6.6.4.1.>.4.6.1.>.4.7.7.4.6.6.6.3.[  .<.4.3.3.3.3.3.1.o. .[ W G G P D $ = &.y 4 y ",
"y y y 2 < Z Y F y y P [ } } 1.1.{ Q Q ] 1.5.4.5.4.6.>.Q } X.} >.4.7.7.7.6.3.3.<.Q  ...<.3.3.3.3.3.o.o.U I A y J F : o 0 ( y 4 y ",
"y 4 y y 3 Y Y G H t A I } } ,.>.>.{ E W 1.3.5.5.4.6.1.W W Q { <.4.6.6.4.5...E _ ` 1.1.<.1.3.3.3.1.1.o.[ J H D G L : o m y t y y ",
"y 4 x 3 > B :.G F F F U { } } ,.<.<.Q [ 3.3.4.5.4.4.1.<.1.<.<.2.6.6.6.3. .` ` Q { <.4.3.1.3.3.1.o.o.o.} U I F I Y G > m H N y y ",
"y 4 4 r < Z Y G K K P [ { } } ,.1.<.<.1.3.3.3.3.4.2.2.2.4.2.<.4.4.4.5.3.` ` Q <.1.2.4.3.3.3.1.1.o.o.} { [ I F I R T > 0 &.D D A ",
"y 4 4 > < C Z G L P P [ [ { } } X.1.1.1.3.3.3.5.3.4.4.4.4.4.4.4.6.6.4.4. .` Q 2.2.2.1.1.3.1.1.| | } } { [ T I G Y 4 O o h D B 4 ",
"4 x x O o ; 4 G K L P P [ [ } } X.>.1.1.o.3.3.3.4.3.4.4.4.4.4.4.4.4.3.<.<.` Q 2.4.3.4.3.1.1.o.| } } } [ W T P L Y B O z +.y 4 y ",
"D F J t O o 3 F D G P P P [ { { } } | | o.o.5.3.3.o.5.o.X.1.4.4.4.3.X.` X.X.` 1.3.3.1.1.1.o.o.[ [  .[ [ T P I K R T 1 m x y y 4 ",
"4 F G ^ r > S F C K L P P ' [ [ } } } | 3.o.o.o.o.5.o.5.` ` 3.3.3.3.X.U  .o. .o.1.1.1.o.o.o.} W I U K P P P K K Y C + @ O.y 4 y ",
"y y x x < O 3 G F C Z K P P [ [ [ } } } | | | o.| 5.5.| ` W 1.3.3.3.X.` ` o.o.o.o.1.o.o.o.} } W J H t S G G Z Z R Z + @ h y 4 y ",
"4 y x 9 X O N L K G F D S P P K P [ { { { } | [ ` o.o.|  .U X.3.3.3.1.Q ` X.o.o.o.o.| X.} } } [ I y t y G G Y Y R 4 + $ ~ D 4 y ",
"y y x p o . : C L L F D t F K H P [ [ [ F G I y S  .1.,.} W  . .X.o.1. .P o.o.o.o.| } [ [ { [ [ U D x D G Y C 2 < + . @ +.D 4 4 ",
"y y 4 i $ X o 1 C G B D A S F K P ' ' I G I x y S P X.X...[ U S J X.o...[ } o.} | [ F K G W W T P I F F F C C O . & 5 v ) D D y ",
"4 y 4 y i $ . ; Z Y F F F F F L L P T P E W D G F I } } X.{ I A F [ o.} } } } } [ I t A F J E P Z L K L 3 ; 2 O # c H ! D D 4 4 ",
"y y y y H r o ; B L L E F K F K K I P P W W G E W E [ { } { U I I E { } { { { { [ F y H G I L Y K K V M 2 o o $ > x y y y 4 y y ",
"y 4 y y D H $ o + C B Y Y T Y Z C K K P P P P E [ W T [ } ] Q Q { W [ [ [ [ ' { [ G D G Y Y Y Z V B 2 O O . 0 c c y 4 y y 4 4 y ",
"y y y N D H i 5 o ; % C Z Z R R T T Y Z L V P L L T W ' T ' [ W ] ] ] [ [ P P ' R ] E Y G 2 V Y < O o .   O h y y 4 y y 4 D 4 y ",
"y y y A D D H 9 & X o ; % : 3 C C Y C 1 < 1 C 2 % V ] V ; 4 R T C Z ' T S 1 K K 1 B V F 2 o > D +   o o 5 c ! y 4 y y y y y y y ",
"y 4 4 4 A 4 y H H u = w . . o ; O % > X X % 1 O . < B + . % T T & % V Y < o 2 1 X o + & % . q u $ $ h v / x 4 y y y y 4 y y 4 y ",
"y y y y y y 4 y y x c ! g g @ @ . = d 0 d @ s m w X O q s 0 3 1 0 0 1 3 O = - O = n 0 = 0 q ^ y h g y y y y y 4 A 4 y 4 4 y 4 y ",
"y 4 y 4 y y y y y 4 4 x H ~ c v g v H ( ) 7 / H ( @ s ! ! $.$ # %.%.k + o %.%.# n ~ @.@.@.) H 4 y ! y y 4 y D D D A y y y y y y ",
"y y y y y y y y y y 4 y y y x y y y y A y / y y J v H y A ~ q k A ! @.= n A ! s @.A A y A A y y y y y y y y B D D N y y y 4 4 y ",
"4 y 4 y y y y y y y y y y 4 4 4 4 4 y 4 4 y y 4 y D y y M A +.@.A A ! k @.S A %.! y y y y y y y y y y y y 4 y D A y 4 y y y y y "
};
